<?xml version="1.0" standalone="no"?>
<!DOCTYPE svg PUBLIC "-//W3C//DTD SVG 20010904//EN"
 "http://www.w3.org/TR/2001/REC-SVG-20010904/DTD/svg10.dtd">
<svg version="1.0" xmlns="http://www.w3.org/2000/svg"
 width="700.000000pt" height="700.000000pt" viewBox="0 0 700.000000 700.000000"
 preserveAspectRatio="xMidYMid meet">
<metadata>
Created by potrace 1.11, written by Peter Selinger 2001-2013
</metadata>
<g transform="translate(0.000000,700.000000) scale(0.100000,-0.100000)"
fill="#000000" stroke="none">
<path d="M3325 6630 c-127 -22 -198 -43 -305 -90 -353 -152 -563 -439 -616
-840 -60 -455 113 -798 621 -1232 153 -131 205 -184 205 -206 0 -21 -44 -59
-342 -298 -320 -257 -465 -381 -660 -566 -539 -511 -866 -1020 -943 -1473 -20
-118 -23 -342 -6 -460 72 -488 351 -827 832 -1011 114 -43 255 -78 381 -94 79
-11 110 -10 208 4 262 38 400 89 631 231 84 52 160 95 169 95 9 0 85 -43 169
-95 231 -142 369 -193 631 -231 132 -19 228 -11 405 33 514 130 863 450 979
897 51 194 63 442 31 631 -51 304 -224 650 -494 989 -265 331 -556 607 -1109
1050 -288 231 -342 278 -342 295 0 26 33 59 190 196 293 253 434 417 535 620
94 189 128 373 105 580 -14 132 -31 210 -70 317 -130 357 -443 592 -880 663
-120 19 -199 18 -325 -5z m308 -355 c373 -65 608 -309 624 -650 4 -87 1 -111
-21 -188 -74 -250 -214 -437 -506 -680 -80 -66 -164 -138 -187 -160 l-42 -40
-73 65 c-40 35 -122 105 -183 155 -263 217 -406 412 -480 658 -25 80 -27 100
-22 190 6 112 38 227 86 311 97 168 299 297 530 338 102 19 171 19 274 1z
m-64 -2347 c37 -35 93 -85 126 -113 493 -412 781 -675 1004 -919 383 -416 598
-766 660 -1073 27 -132 26 -190 -4 -306 -95 -367 -294 -618 -575 -726 -86 -34
-224 -61 -305 -61 -118 0 -330 53 -450 112 -91 45 -186 111 -183 128 2 8 79
82 172 165 92 82 200 186 238 230 197 224 311 471 311 675 0 297 -168 504
-483 596 -49 14 -97 19 -195 19 -145 0 -202 -13 -317 -71 l-68 -33 -67 33
c-116 58 -173 71 -318 71 -141 0 -204 -13 -323 -66 -191 -85 -312 -238 -348
-441 -18 -100 -13 -175 22 -295 71 -248 214 -445 520 -718 93 -83 170 -157
172 -165 3 -17 -92 -83 -183 -128 -120 -59 -332 -112 -450 -112 -81 0 -219 27
-305 61 -286 110 -485 366 -580 744 -18 72 -21 106 -17 171 23 330 246 720
678 1190 205 224 437 438 874 810 143 122 273 236 289 253 17 17 32 31 34 31
3 0 34 -28 71 -62z m-309 -1685 c36 -18 103 -59 150 -92 47 -34 87 -61 90 -61
3 0 43 27 90 61 129 92 199 122 296 127 67 4 87 1 121 -16 59 -31 126 -111
157 -188 24 -60 26 -72 16 -117 -13 -63 -57 -150 -112 -225 -91 -122 -290
-311 -485 -460 l-83 -63 -82 63 c-363 276 -597 554 -601 716 -3 89 83 224 172
273 30 16 51 19 121 16 71 -3 96 -9 150 -34z"/>
</g>
</svg>
