<svg id="Layer_2" data-name="Layer 2" xmlns="http://www.w3.org/2000/svg" viewBox="0 0 78.98 82.82"><defs><style>.cls-1{fill:#dedede;}</style></defs><title>a2</title><path class="cls-1" d="M48.28,38.79a.33.33,0,0,1-.26.3c-.14,0-.25-.14-.27-.29a.17.17,0,0,1,.27-.15C48.17,38.66,48.28,38.74,48.28,38.79Z"/><path class="cls-1" d="M41.1,58.36l-.24.14a2.54,2.54,0,0,1-1.39,1.6,1.65,1.65,0,0,0,1.36-1A7.8,7.8,0,0,1,39.36,62s0,.28.26.05A6,6,0,0,0,41.1,58.36Z"/><path class="cls-1" d="M52,60c.1-.11-.19.09-.06,0a.92.92,0,0,1,.29-.06,2,2,0,0,1,1.08.41l.24-.15c-.52-.35-1.28-.64-1.79-.1Z"/><path class="cls-1" d="M54.77,62.09a1.12,1.12,0,0,0,.72.27l.23-.14a1.09,1.09,0,0,1-.72-.27Z"/><path class="cls-1" d="M62.28,28.43c0-.12-.08-.15-.18-.05-1.38,1.32-3.83,1.36-5.51.79a.31.31,0,0,0-.34.12C58.16,29.89,61.24,30.08,62.28,28.43Z"/><path class="cls-1" d="M56.41,28.74c-.37-.05-.28.11-.28.11a3.51,3.51,0,0,0,1.22.21,2.94,2.94,0,0,0,1.72,0c-.25,0-.66,0-1,0a5.39,5.39,0,0,0,2.79-1.32C60.36,28.29,57.69,28.93,56.41,28.74Z"/><path class="cls-1" d="M39.66,26.4h0Z"/><path class="cls-1" d="M42.15,27.6c-.59-.87-1.94-1.05-2.49-1.2A12.05,12.05,0,0,1,42.15,27.6Z"/><path class="cls-1" d="M52.1,31.33c.27.15.49-.22.49-.48s-.23-.49-.5-.45-.5.22-.49.64A.34.34,0,0,0,52.1,31.33Z"/><path class="cls-1" d="M49.76,20.79a1,1,0,0,1-.47,0c.46.59.86.16.86.16C50.36,20.68,49.76,20.79,49.76,20.79Z"/><path class="cls-1" d="M46.19,21.85,46,22s-.27-.08-.08.21c0,0,.27.46.48.38,0,0,.19,0,0-.24C46.39,22.34,46.44,21.94,46.19,21.85Z"/><path class="cls-1" d="M6.5,41.61a9.07,9.07,0,0,0-2.67-.43L2.18,41a.46.46,0,0,1-.35-.14c-.07-.1-.07-.17-.2-.18l-.2.1h0c-.1.07-.06.26-.06.36,0,.26,0,.49,0,.74s.11.18.22.14.31-.31.51-.31c.85,0,3.28,0,3.63.14A.89.89,0,0,1,6,43.35v0a2.13,2.13,0,0,1-.43.1l-3.23,0A.48.48,0,0,1,2,43.33c-.09-.08-.18-.19-.3-.13h0l0,0-.1.06c-.2.15-.09.57-.09.8s-.06,1.2.13,1.27.3-.24.38-.34c.26-.08,2-.08,2.51-.1a3.47,3.47,0,0,0,2-.41c.4-.31.37-.84.37-1.29S6.94,42,6.5,41.61Zm-4.79.28.08-.08h0Zm4.09,2.87a1.79,1.79,0,0,0,.54-.18A1.26,1.26,0,0,1,5.81,44.76Z"/><polyline class="cls-1" points="55.97 5.86 55.96 5.87 55.97 5.87 55.97 5.86"/><line class="cls-1" x1="1.95" y1="39.21" x2="1.95" y2="39.21"/><path class="cls-1" d="M6.47,36c-.09,0-1.13-.19-1.57-.26-.77-.13-1.57-.22-2.34-.4a.35.35,0,0,1-.27-.23c0-.1-.16-.31-.29-.24H2L1.88,35h0c-.12.13-.1.31-.14.51s-.06.51-.1.76,0,.29.17.21h0l0,0,.09-.05c.09-.06.14-.14.23-.17A8.59,8.59,0,0,1,4,36.45L2.21,37.58a3.39,3.39,0,0,0-.66.42,4.36,4.36,0,0,0-.23,1.21c-.07.34.08.34.13.34h0L2,39.21a1.12,1.12,0,0,1,.55,0c.94.07,3.64.26,3.69.34l.09.18c0,.28.23.31.23.31.2.07.2-.3.22-.43A7.11,7.11,0,0,0,6.8,38.5c0-.17-.26,0-.26,0s-.08.28-.23.31a1.42,1.42,0,0,1-.52,0,10.41,10.41,0,0,1-2.42-.4l3.53-2.11h0l0,0c.23-.18-.4-.22-.46-.22M2,36.33l0,0,.16-.09-.2.12"/><polyline class="cls-1" points="1.93 39.21 1.79 39.3 1.93 39.21"/><path class="cls-1" d="M59.46,12.65a2.49,2.49,0,0,1-.81.64h0s-.23.17.22.41a3.34,3.34,0,0,1,.62.46c.39.37.46,0,.47-.14a1.93,1.93,0,0,1,.2-.86L61.63,11c.07,0,0,.44,0,.6-.05.51-.33,3.16-.4,4a.43.43,0,0,0,.45.49l.14-.11c.14-.25.15-.58.3-.84a3.12,3.12,0,0,1,.2-.26q.95-1.12,1.89-2.25a1,1,0,0,1,.63-.44l.34-.13c.07-.06.09-.15,0-.28s-.6-.44-.8-.75a.54.54,0,0,0-.24-.18s-.33-.05-.2.36a1.19,1.19,0,0,1-.18.86l-.82,1.21A16.79,16.79,0,0,1,63,10.71c0-.33.13-.81-.12-1.06a5.1,5.1,0,0,0-1.11-.79L61.63,9a.55.55,0,0,0,0,.31,2.3,2.3,0,0,1-.07.51,1.44,1.44,0,0,1-.29.57C60.95,10.69,59.78,12.24,59.46,12.65Z"/><polyline class="cls-1" points="2.54 33.58 2.52 33.58 2.5 33.6 2.54 33.58"/><path class="cls-1" d="M7.35,34.48a6.64,6.64,0,0,1,.16-.82c0-.14.1-.26.13-.4S7.57,33,7.45,33a1.64,1.64,0,0,1-1,.06,15.39,15.39,0,0,1-3.24-1c-.13-.12-.37-.52-.57-.45h0s-.1-.05-.25.71a12,12,0,0,0-.21,1.22c0,.16.1.13.16.11s.18-.21.33-.2a29.3,29.3,0,0,1,3.81.85,2.58,2.58,0,0,1,.58.53C7.21,35.06,7.33,34.6,7.35,34.48Zm-4.85-.9,0,0Z"/><path class="cls-1" d="M71.37,29.4c-.25.18,3.89.15,3.81.18s-4.91-.07-4.77.27a5.12,5.12,0,0,1,.23.77c0,.14.19.81.38.7s.28-.37.48-.52l.37-.16s2.84-1.08,3.32-1.22c.15,0,.23.08.36.06s.25,0,.08-.44c-.09-.26-.18-.52-.26-.79s0-.73-.35-.56h0l-.24.25a5.64,5.64,0,0,1-.61.36Zm0,1.46.06,0h0Zm.08-.05h0Z"/><path class="cls-1" d="M14.28,11.9a.74.74,0,0,1,.45.3,16.92,16.92,0,0,1,2.18,2.39,2.5,2.5,0,0,1,.34.84c.09.44.41.09.41.08h0a8.51,8.51,0,0,1,1.12-.91c.06,0,.3-.25.08-.38h0a1,1,0,0,1-.67-.3c-.56-.64-2.17-2.42-2.36-2.7a4.81,4.81,0,0,1-.29-.79l-.14-.06h0a6.06,6.06,0,0,0-1.3,1.14c-.07.08-.16.13-.18.25S14.23,11.89,14.28,11.9Z"/><path class="cls-1" d="M63.06,16.64a1.92,1.92,0,0,0,1,1.88c1,.54,2.2-.27,2.9-1a3.86,3.86,0,0,0,1.09-1.89,2,2,0,0,0-1-2c-1-.6-2.24.25-3,1A3.38,3.38,0,0,0,63.06,16.64Zm2.21-1.31c.3-.27,2-1.8,2.07-.67,0,.37-.32.78-.52,1-.34.44-.74.84-1.12,1.25l-.4.42a3.65,3.65,0,0,1-.37.31,1,1,0,0,1-.35.14c-.3,0-.57-.25-.68-.5s.1-.66.27-.89A8.49,8.49,0,0,1,65.27,15.33Z"/><path class="cls-1" d="M7.59,20.46c.4,0,.8.37,1.11.59.7.51,1.39,1,2.08,1.54a1.45,1.45,0,0,1,.32.56c0,.06,0,.39.17.3h0a8.22,8.22,0,0,0,1-1.46c.22-.37-.31-.29-.5-.38s-.4-.25-.58-.36-1-.53-.55-.91a3.59,3.59,0,0,1,1.12-.08A6.44,6.44,0,0,0,13.41,20c.21-.07.5-.2.57-.44s-.4-.26-.55-.26-1.64-.17-2.13-.25c-.24,0-.3,0-.28-.27a1.07,1.07,0,0,0-.36-.85A1.35,1.35,0,0,0,9,17.76a5.62,5.62,0,0,0-1.36,1.76l-.42.67C7,20.61,7.33,20.47,7.59,20.46Zm2.2-.14h0ZM8.47,19a1.81,1.81,0,0,1,.36-.45c.39-.12.86.31,1.12.55s.12.83-.12,1.14c-.2,0-.45-.25-.58-.35l-.66-.46C8.44,19.31,8.35,19.22,8.47,19Z"/><path class="cls-1" d="M72.29,36.27h0l2-1.5.47.26A1.6,1.6,0,0,0,76,34.93a1.47,1.47,0,0,0,.83-1.23,5,5,0,0,0-.28-1.53c-.1-.37-.17-.74-.27-1.12-.06-.19-.11-.3-.24-.25h0l0,0h0l0,0h0l-.07.12a.85.85,0,0,1-.3.34,3.53,3.53,0,0,1-.36.14l-3.06.77c-.21,0-.48,0-.61-.14s-.58,0-.41.28A6.88,6.88,0,0,1,71.43,34c0,.11.25,0,.4-.13a1.19,1.19,0,0,1,.52-.31,4.37,4.37,0,0,1,1.16-.31c.56.16-.22.76-.42.95A5.14,5.14,0,0,0,72,35.68c-.1.22-.25.69.12.7ZM76,33.6l-.06,0Zm-.28-1.12.05,0-.05,0c.26,0,.34,0,.39.29s.13.59-.09.8a2.34,2.34,0,0,1-.35.14l-.23.06a1.16,1.16,0,0,1-.62,0c-.22-.08-.55-.72-.4-1Zm-1.31.29h0l0,0Zm-.06,0h0l0,0Z"/><path class="cls-1" d="M12.84,16.8,14,16.12c.59-.31,1.17-.46,1.22.24a1.45,1.45,0,0,1-.57,1,3.38,3.38,0,0,1-1.66.68,1.1,1.1,0,0,0-.34.12h0s-.17.13,0,.24a6.46,6.46,0,0,0,.89.39c.1,0,.43.24.54.18l.14-.1a3,3,0,0,1,.68-.87,2.93,2.93,0,0,0,.78-.92A2.05,2.05,0,0,0,15.93,16a1.39,1.39,0,0,0-1.42-1.24,8.83,8.83,0,0,0-2.28,1c-.31.13-.63.18-.84-.11s.06-.82.34-1a3.15,3.15,0,0,1,1-.23,1.77,1.77,0,0,0,.89-.22c.29-.24-.61-.59-.77-.67a2.72,2.72,0,0,0-.41-.15c-.14-.09-.23.43-.43.54a12,12,0,0,0-1,.71,1.51,1.51,0,0,0-.1,2A1.79,1.79,0,0,0,12.84,16.8Z"/><path class="cls-1" d="M68.16,20.42a1.43,1.43,0,0,1-.3,1.55c-.9.41-1.26-1.09-1.28-1.74,0-.42.16-.82.18-1.25a.17.17,0,0,0-.28-.17h0a10.55,10.55,0,0,0-.92,1c-.15.21-.37.41-.14.61a2.09,2.09,0,0,1,.69,1.11,1.63,1.63,0,0,0,1.71,1.2,2.06,2.06,0,0,0,1.2-.61,2.2,2.2,0,0,0,.55-2,11.49,11.49,0,0,1-.39-1.62.47.47,0,0,1,.14-.34c.65-.26.89.84.91,1.32a3.38,3.38,0,0,1-.12.92c0,.08-.12.23,0,.24.26,0,1.07-.78,1.11-.81.3-.24-.2-.58-.32-.81s-.12-.34-.21-.5a3.55,3.55,0,0,0-.2-.34c-.34-.6-1.19-1.25-1.88-.84l-.2.13a1.79,1.79,0,0,0-.58,1A7.59,7.59,0,0,0,68.16,20.42Z"/><path class="cls-1" d="M76.42,41.23s-.78,0-1.06.25a5.71,5.71,0,0,0-1,2c-.18.54-.45,1-1.05,1.07-1.34-.52-.6-2-.11-2.4s.58-.5.82-.68c0,0,.21-.25,0-.18l-1.68.33a2,2,0,0,1-.08,1.32,1.73,1.73,0,0,0,1.92,2.45c.74-.1,1.12-.63,1.44-1.29.39-.83.26-1.35.74-1.8a.53.53,0,0,1,.35-.11c.68.18.36,1.33.1,1.72s-.92.77-.85.78-.16.26.11.22a11.44,11.44,0,0,0,1.15-.32c.21-.12.09-.34.14-.59s.13-.79.14-.92C77.52,42.37,77.22,41.33,76.42,41.23Z"/><path class="cls-1" d="M17,9.65a1.79,1.79,0,0,1,.9.77q.41.66.85,1.31l.69,1.08a1.66,1.66,0,0,1,.09.52c0,.13-.08.28.08.36l.12-.07c.18-.12.35-.29.54-.43a8.25,8.25,0,0,0,1.39-1.23,2,2,0,0,0,.31-1.45,3.48,3.48,0,0,0-1.45-2.3,1.89,1.89,0,0,0-2,0h0A15.29,15.29,0,0,0,16.71,9.4C16.63,9.53,16.9,9.62,17,9.65Zm1.68-1c.46-.22.83.17,1.1.53a15.87,15.87,0,0,1,.93,1.49c.27.45.58,1,.1,1.41-.25.08-.35-.17-.49-.36l-.65-1-1-1.61,0,0,0,0C18.38,8.87,18.45,8.81,18.65,8.66Z"/><path class="cls-1" d="M26.54,4.11a1.24,1.24,0,0,1,.5.61c.29,1.1.59,2.19.88,3.29a1,1,0,0,1,0,.54c0,.14-.14.26-.06.39s.76-.15.88-.2a8.1,8.1,0,0,0,1.41-.58c1.37-.85,1.14-2.63.54-3.91a1.89,1.89,0,0,0-1.22-1.12,4.26,4.26,0,0,0-2.12.32,2.27,2.27,0,0,0-.85.41C26.4,3.94,26.44,4,26.54,4.11Zm1.8-.32c1-.41,1.34,1.69,1.49,2.33s.33,1.3-.18,1.69c-.36.13-.38-.22-.46-.5s-.22-.79-.33-1.19l-.58-2A.34.34,0,0,1,28.34,3.78Z"/><path class="cls-1" d="M34.72,2.3a1.19,1.19,0,0,1,.16.47q.14.67.24,1.36c.08.65.11,1.31.14,2,0,.17,0,.34,0,.51a.76.76,0,0,1-.14.32c-.1.2.2.24.31.23a8.88,8.88,0,0,0,2.06-.33A1.7,1.7,0,0,0,38,6.58a1.73,1.73,0,0,0,.31-.25,2.88,2.88,0,0,0,.68-2,4.19,4.19,0,0,0-.44-2,1.61,1.61,0,0,0-1.26-.74,8.54,8.54,0,0,0-2.3.11c-.12,0-.61.13-.49.36S34.65,2.2,34.72,2.3Zm1.63-.25c1.16-.36,1.06,2.07,1.07,2.69s.1,1.21-.34,1.61c-.32.11-.37-.27-.39-.53,0-.43-.09-.86-.14-1.3-.07-.75-.15-1.5-.22-2.26Zm0,0h0l0,0Z"/><path class="cls-1" d="M22.72,6.85c.1.61.16,1.22.22,1.84s.06.95.08,1.42a2.14,2.14,0,0,1-.09.83c-.06.14-.21.31-.18.48s.28,0,.28,0l.09-.07a5.36,5.36,0,0,1,1.07-.57c.11-.06.22-.13.21-.25s-.39-.32-.48-.47a.79.79,0,0,1,0-.74A9,9,0,0,1,25,8.83c.13,0,.46.47.46.53a1.79,1.79,0,0,1,0,.3c0,.16,0,.29.19.26s1.61-.77,1.63-.77c.29-.19-.35-.35-.45-.43s-2-2.23-2.56-3A1.39,1.39,0,0,1,24.18,5c0-.12-1,.2-1.07.24a3.62,3.62,0,0,0-.73.43l.16.35A2.65,2.65,0,0,1,22.72,6.85Zm1.08,2.51,0,0Zm.61-1.31c.12.14.22.26.07.37l-.59.25a.47.47,0,0,1-.27,0l-.07-.42c0-.42-.11-1.3-.11-1.34C23.69,7,24.28,7.91,24.41,8.05Zm-.94,3a4.72,4.72,0,0,0-.41.31A2.73,2.73,0,0,1,23.47,11.08Z"/><path class="cls-1" d="M69.13,24.55c-.32,0-.58-.11-.86,0l-.17,0c-.14.09.09.33.13.39a4.62,4.62,0,0,1,.26.61c.07.18.25.16.39.05l.32-.32a3,3,0,0,1,.66-.22.28.28,0,0,1,.37.2c.11.25.23.5.33.75a.79.79,0,0,1,.12.46,2.82,2.82,0,0,1-.9.65l-.25,0h0a.2.2,0,0,0-.12.21,1.43,1.43,0,0,0,.21.44,4.9,4.9,0,0,1,.26.82c.19.53.42.32.42.32s.07-.16.13-.27a3.35,3.35,0,0,1,.73-.82c.73-.74,2.33-2.26,2.38-2.29s.63-.07.67-.2h0c.27-.22-.62-1.38-.62-1.65s-.21-.17-.2-.18-.2,0-.48.46l-.33.09C71.67,24.3,69.35,24.52,69.13,24.55Zm0,.76h0Zm4.38.26h.06l-.06,0Zm0,0h0Zm-2.08.27h0l0,0Zm.06,0h0l0,0Zm-.5-1c.15,0,1.14,0,1.15,0s.23.07.08.24l-.79.79h-.19a2,2,0,0,1-.22-.58C71,25.11,70.88,25,71,24.86Z"/><path class="cls-1" d="M4.82,25.36,5,25.27a.37.37,0,0,1,.32-.07,3,3,0,0,1,1.12.53l1.84,1.08h0c.14.11.59.4.65.48s0,.31.21.35l.17-.09h0l1.6-3s-1.14-1.75-1.46-1.15c-.1.18.17.54.23.72a2,2,0,0,1,.08.81,2.17,2.17,0,0,1-.22,1A16.23,16.23,0,0,1,7.86,25s.13-.54.47-.62c.15,0,.46-.05.52-.15.19-.27-1.08-.81-1.42-.9s-.09.61-.05.72a.8.8,0,0,1-.08.67L5.86,24c-.11-.06.33-1,.56-1.06a3.78,3.78,0,0,0,.87-.26c.21-.14,0-.3-.17-.33s-.48-.06-.72-.12a.35.35,0,0,0-.28.05A12.64,12.64,0,0,0,5,24.53C4.93,24.65,4.47,25.39,4.82,25.36Zm2.6-.66-.06.06Zm-2.33.49L5,25.26Z"/><path class="cls-1" d="M57,7.7a27.7,27.7,0,0,1-1.84,2.94c-.51.07-.47.2-.48.22-.21.21.42.38.54.43.54.28,2,1.21,2.23,1.37a2.17,2.17,0,0,0,.38.24s.29,0,1.15-1.06c.1-.12.34-.42,0-.38s-.46.22-.68.28a2.1,2.1,0,0,1-1.41-.22c-.37-.2-.27-.39-.11-.66q.39-.7.79-1.4a.87.87,0,0,1,.38.27,1.19,1.19,0,0,1,.32.78c0,.21.16.33.32.16a3.15,3.15,0,0,0,.41-.89c.07-.16.33-.69.15-.73s-.38.09-.5.13l-.3-.06c-.23-.06-.36-.05-.49-.26.26-.41.5-.84.79-1.24.28,0,.6.42.72.63a2.86,2.86,0,0,1,.34.81.29.29,0,0,0,.34.21.32.32,0,0,0,.19-.22c.07-.22.28-.83.28-.92s-.36-.27-.45-.33c-.7-.47-1.38-1-2.09-1.41-.1-.07-.73-.4-.71,0,0,.14,0,.27,0,.41A2.3,2.3,0,0,1,57,7.7Zm-1.87,3-.09,0,.11,0Zm0,0"/><path class="cls-1" d="M72.2,39.21c0,.28,0,.6,0,.87s0,.11.06.25l.12.05,1.27.2c.3.06.39-.16.2-.25a2.37,2.37,0,0,1-1.21-1.68c-.05-.42.14-.44.45-.46L74.64,38a.86.86,0,0,1,0,.48,1,1,0,0,1-.43.63c-.16.14-.12.33.1.28a12.11,12.11,0,0,1,1.19-.29c.28,0,.13-.19.13-.2-.53-.46-.42-.7-.44-.78s0-.2.21-.21c.47,0,.94-.09,1.42-.08.18.22,0,1.08-.05,1.3s-.38.41-.53.66c0,0-.26.34.2.29l.89-.28c.09-.08,0-.26,0-.37,0-.86-.08-1.69-.13-2.55a2.18,2.18,0,0,0-.08-.62c-.06-.07-.14-.09-.27,0s-.19.19-.31.26-1.42,0-1.65.19A6.37,6.37,0,0,1,72.5,37c-.1-.08-.09-.15-.28-.22h0c-.29-.06-.23.51-.21.64C72.09,38,72.18,38.6,72.2,39.21Zm.28-2.2,0,0h0l-.07-.06Zm-.25-.21h0Z"/><path class="cls-1" d="M3,31c.08-.1.06-.08.1-.13a1.43,1.43,0,0,1,.4,0,30.38,30.38,0,0,1,4.19.05c.27.42.43.12.44.1a5.44,5.44,0,0,0,.35-1c0-.09.25-.57.15-.63s-.27,0-.36,0a.76.76,0,0,1-.54-.17A21.25,21.25,0,0,1,4.87,26.9a1.2,1.2,0,0,1-.22-.3c-.07-.14-.15-.55-.3-.46-.33.19-.6,1.28-.6,1.48s.28,0,.28,0c.41-.13,1.16.58,1.44.79s1.25.82,1,1.11c-.14.05-2.16,0-2.38,0a1.28,1.28,0,0,1-.68-.26c-.14-.09-.22,0-.24.06h0c-.06,0-.39,1.35-.46,1.57A.14.14,0,0,0,3,31Zm1.1-3.39,0,0ZM3,30.84H3l0,0Z"/><path class="cls-1" d="M45.15,11s.16-.13,0-.19a7.33,7.33,0,0,1-1.46-1.36L43,8.72l-.33-.28a8.33,8.33,0,0,0,.66.95A8.08,8.08,0,0,0,45.15,11Z"/><path class="cls-1" d="M42.32,12.54a.67.67,0,0,0,.75.23l.24-.19c-.32.12-.56-.11-.77-.34a3.62,3.62,0,0,0-.67-.61c-.16-.11-.67-.35-.84-.1h0a1.48,1.48,0,0,1,.33.76c0,.29,0,.66.33.72a1.42,1.42,0,0,0,.63-.16h0c-.4.17-.7-.06-.64-.49a.74.74,0,0,0-.26-.64A2.39,2.39,0,0,1,42.32,12.54Zm.86.12Z"/><path class="cls-1" d="M49.58,32.45h0a5.52,5.52,0,0,0,1.37,1.09,2.24,2.24,0,0,0,2.07,0,3.26,3.26,0,0,0,1.42-2.38l-.2.12a2.52,2.52,0,0,1-2.27,2A3.48,3.48,0,0,1,49.58,32.45ZM53,33Z"/><path class="cls-1" d="M47.83,31.28a2.14,2.14,0,0,0,1,1.48h0l.12-.07a2.52,2.52,0,0,1-.88-1.57Z"/><path class="cls-1" d="M54.3,38.52a4.55,4.55,0,0,0-1.86-.77,3.42,3.42,0,0,1,1.66,1s0,1,0,1.63a2.33,2.33,0,0,1-.75,1.95l.23-.14c.83-.66.83-2,.74-3a1.61,1.61,0,0,1,.85-1.43A3.15,3.15,0,0,0,54.3,38.52Z"/><path class="cls-1" d="M48.49,37.48a3.8,3.8,0,0,1,1.71-.27l.24-.15a3.87,3.87,0,0,0-1.71.27Z"/><path class="cls-1" d="M57.79,49.21l-.33.19s0,.06,0,.32a1,1,0,0,1-.39.67c.75,0,.76-.87.71-1.18"/><path class="cls-1" d="M58.62,46.28l-.23.13a3,3,0,0,1-.25,1.67,1.7,1.7,0,0,1-.3.42l-.13.12-.07.05h0l.16-.09a2.37,2.37,0,0,0,.82-2.3"/><path class="cls-1" d="M56.34,43l-.24.14a3.05,3.05,0,0,1,2.5,2.54S58.36,42.94,56.34,43Z"/><path class="cls-1" d="M57.6,47.21l.09-.34c-.44-2.25-3.58-2.33-3.65-2.34A4.58,4.58,0,0,1,57.6,47.21Z"/><path class="cls-1" d="M55.07,42.94a8.2,8.2,0,0,0-2.6.21,3.32,3.32,0,0,0-.37.11c-.12,0-.45,0-.59,0a1.11,1.11,0,0,0-.47.34,1.31,1.31,0,0,1,1-.17,10,10,0,0,1,2.77-.34Z"/><path class="cls-1" d="M39.28,48l-3.34-3.91-.08,0,0,0c1,1.38,2.11,2.71,3.21,4l0,0h0l.08,0,0,0h0l.08-.07,0,0,0,0h0Z"/><path class="cls-1" d="M43.66,46.24c-1,0-1.82,0-2.79,0-.24,0-.9.1-.94,0a6.12,6.12,0,0,0-.39-.71,30.31,30.31,0,0,0-2-2.8c-.44-.57-1.28-1.19-2-.8-.22.11-.31.35-.46.55a3.26,3.26,0,0,1,.81-.45c.56-.13,1.17.52,1.5.93a31.56,31.56,0,0,1,2,2.77,5,5,0,0,1,.35.66c0,.11,0,.13.13.13s.7.12.94.11c1,0,1.82,0,2.79,0a33.83,33.83,0,0,0,4.73-.23l.1-.21C46.8,46.24,45.24,46.2,43.66,46.24Z"/><path class="cls-1" d="M47.94,47.09l-2.39,0-.24.15,2.39,0Z"/><path class="cls-1" d="M43.74,47.58l-2.69,0-.24.14,2.69,0Z"/><path class="cls-1" d="M39.73,48.24l1.77,0,.24-.14L40,48.1Z"/><path class="cls-1" d="M40.18,48.5l-.24.15,9.2.26.24-.14Z"/><path class="cls-1" d="M47,48.44l1.93,0,.24-.15-1.94,0Z"/><path class="cls-1" d="M37.52,58.68l.23-.14A4.93,4.93,0,0,1,34,58.14a14,14,0,0,1-3.8-2.78,27.63,27.63,0,0,1-2.83-4.17,11.72,11.72,0,0,0,2.53,4.24,14,14,0,0,0,3.84,2.84A4.87,4.87,0,0,0,37.52,58.68Z"/><path class="cls-1" d="M45.59,63.86l-.41.18c.09.07.21,0,.32.27a1.41,1.41,0,0,1,0,.9S46,64.14,45.59,63.86Z"/><path class="cls-1" d="M43.11,71.82s1.75-.5.67-1.68l-.38.49c-.13.12.07.2.17.11a.54.54,0,0,1,.1.55A1.83,1.83,0,0,1,43.11,71.82Z"/><path class="cls-1" d="M38.94,62.17c-.16-.16-.39,0-.6-.07a13.79,13.79,0,0,1-6.4-2.32,9.15,9.15,0,0,0,5,2.82C38.6,63,39.07,62.31,38.94,62.17Z"/><path class="cls-1" d="M33.23,58.72a10.28,10.28,0,0,0,2.44.9,26.84,26.84,0,0,1-3.75-1.9A13.09,13.09,0,0,0,33.23,58.72Z"/><path class="cls-1" d="M42.66,62.49a3.3,3.3,0,0,1-1.78,2A1.76,1.76,0,0,0,42.66,62.49Z"/><path class="cls-1" d="M34.38,64.89a3.57,3.57,0,0,0-1.1-2.68,42.19,42.19,0,0,1-4.08-6.29,23,23,0,0,0,2.2,4.29c.49.74,1.09,1.39,1.61,2.1a4.59,4.59,0,0,1,1.09,2.18c-.25-.31-1.93-2.5-2.38-3.24-.55-.92-1.06-1.87-1.52-2.85a27.7,27.7,0,0,0,1.24,2.92A10.29,10.29,0,0,0,34.38,64.89Z"/><path class="cls-1" d="M28.94,61c.14.82.2,1.64.31,2.45l.08-.05,0,0c.07-.07,0-.45,0-.54,0-.27,0-.54,0-.82a15.74,15.74,0,0,0-.19-1.62,9.76,9.76,0,0,0-.91-2.94h0l-.32.2,0,0,0,0a4.12,4.12,0,0,1,.63,1.4A17.78,17.78,0,0,1,28.94,61Z"/><path class="cls-1" d="M33.65,65.15a6.54,6.54,0,0,0-2.51-.61,3.57,3.57,0,0,0-1.25.24,7.93,7.93,0,0,1,3.43.58Z"/><path class="cls-1" d="M37.14,64.57l.24-.15c-.53.21-2.71-1.24-2.71-1.24C35,63.47,36.59,64.79,37.14,64.57Z"/><path class="cls-1" d="M34.52,48.76c.11.05.45.27.45.27l.17-.05s-.78-.88-1.41-.86a6.42,6.42,0,0,0-1.1.46A2.78,2.78,0,0,1,34.52,48.76Zm-1.77-.27"/><path class="cls-1" d="M51.87,47.08c.17-.13-1.64-2.15-2.85-2.67l-.09,0a8.31,8.31,0,0,1,2.81,2.68Z"/><path class="cls-1" d="M54,49.8a2.53,2.53,0,0,0-.63-2.29,3.71,3.71,0,0,1,.4,2.44Z"/><path class="cls-1" d="M53.79,46.73a1.06,1.06,0,0,0-.62-.42l-.11.07a6.94,6.94,0,0,1,.74,1.05C53.82,47.52,54,47.09,53.79,46.73Z"/><path class="cls-1" d="M29.09,13.39A47.13,47.13,0,0,0,24.3,15.5a47.76,47.76,0,0,0-6.67,4.66c1.82-1.35,8.39-6,15.21-7.6l.13,0c1.35-.39,1.49-.72,1.4-.88,0,0-2.41.8-2.68.88-.87.26-1.74.56-2.59.87"/><polyline class="cls-1" points="32.38 13.03 32.33 13.07 32.38 13.03"/><path class="cls-1" d="M18.33,18.75h0a55.36,55.36,0,0,1,15.5-8.18A39.88,39.88,0,0,0,25.1,14.1C23.82,14.78,18.47,18.13,18.33,18.75Zm13.14-7.44L29.64,12c-.66.27-1.31.54-2,.83A39.6,39.6,0,0,1,31.47,11.31Z"/><polygon class="cls-1" points="21.87 15.98 21.96 15.93 22.01 15.9 21.87 15.98"/><polyline class="cls-1" points="31.21 17.87 31.16 17.91 31.21 17.87"/><path class="cls-1" d="M40.75,34a33.94,33.94,0,0,0-6.26-.13Z"/><path class="cls-1" d="M41.23,32.91h0Z"/><path class="cls-1" d="M24,33.07a7.67,7.67,0,0,0-1.63.17l-.23.14h0l-.05,0,0,0,0,0h0a5.66,5.66,0,0,1,.63-.1l3.18,0,.53,0c.18,0,.44.08.66.08a.58.58,0,0,0,.2,0l.19-.13.05,0,.05,0,0,0,0,0A32.67,32.67,0,0,0,24,33.07"/><path class="cls-1" d="M64.86,51.13l-.23.15a3.52,3.52,0,0,1-1.25,2.16l.23-.14a3.5,3.5,0,0,0,1.25-2.17"/><polygon class="cls-1" points="36.08 72.52 36.21 72.44 36.23 72.42 36.08 72.52"/><path class="cls-1" d="M69.59,45.72c-.16.18.34.55.68.61,0,0-.56-.41-.5-.59l-.18,0"/><polyline class="cls-1" points="60.59 17.27 60.57 17.27 60.59 17.27"/><path class="cls-1" d="M48.73,11c0-.18-.3-.16-.36-.23s.39-.09.28-.18a.82.82,0,0,0-.71-.14.71.71,0,0,1-.28,0,5.69,5.69,0,0,1-2.25-1.3,2.33,2.33,0,0,0-.09-.54C45,8,44.07,7.73,44.07,7.73a7.47,7.47,0,0,1,.69.72,2.23,2.23,0,0,1,.33.89A4,4,0,0,0,46,10.52a8.24,8.24,0,0,1-.38-.77c0-.11-.09-.23-.13-.34a6.3,6.3,0,0,0,2.66,1.86s0-.05,0-.12.07-.18.19-.09l1.21.68c0-.36-.91-.41-.83-.73"/><path class="cls-1" d="M50.47,12.89l.14-.14a2.11,2.11,0,0,0,.25-1,4,4,0,0,0-.61-2,18.54,18.54,0,0,0-1.8-2.36h0c0,.18.44.6.54.72a8.57,8.57,0,0,1,1,1.8,5.49,5.49,0,0,1,.4,1.84A10.41,10.41,0,0,0,49,9.94c0-.06-.22,0-.12.09a9.34,9.34,0,0,1,1.42,2.44h0l0,.22Zm-.19-.21h0Z"/><path class="cls-1" d="M48.07,12.86c.1-.05.06-.41,0-.41v0a5.47,5.47,0,0,1-1.83-.93,3.59,3.59,0,0,1-.37-.37l-.14-.18-.17,0h0a5.14,5.14,0,0,0,1.89,1.72C47.58,12.77,47.92,13,48.07,12.86Zm0-.44h0Z"/><path class="cls-1" d="M46.47,12.75l.56,0a6.29,6.29,0,0,1-1.79-1.29S45.32,12,46.47,12.75Z"/><path class="cls-1" d="M48.46,12.31h0l.37,0c.14,0,.26.1.38.12s.12-.23.12-.24a1.14,1.14,0,0,0-.8-.29,3.29,3.29,0,0,1-1.43-.61h-.05c0,.11.05.24.11.3A2.84,2.84,0,0,0,48.46,12.31Zm0-.37"/><path class="cls-1" d="M45.5,7.78l-.23.14a1.35,1.35,0,0,0,.69.19l.22,0,.23-.14-.22,0a1.36,1.36,0,0,1-.69-.19"/><path class="cls-1" d="M46,8.26l-.24.14a1.48,1.48,0,0,0,1.43-.23A2.82,2.82,0,0,1,46,8.26Z"/><path class="cls-1" d="M47.27,9s-.2.34-.38.27l-.13.27c.33.1.53-.12.76-.54Z"/><path class="cls-1" d="M46.83,9.85l.11.08c.33,0,.67-.19.93,0,0,0,.17,0,.11-.19-.44-.55-.46-.22-.91-.06Z"/><path class="cls-1" d="M50.2,16.49c.28,0,.51.3.74.5L51,16.8c-.09-.22-.19-.68-.46-.71S50.2,16.49,50.2,16.49Z"/><path class="cls-1" d="M50.8,13.63a2.31,2.31,0,0,1-.3,1.26l-.46.36a1.69,1.69,0,0,0,1.08-1.73C51.13,13.56,50.81,13.33,50.8,13.63Z"/><path class="cls-1" d="M51.39,12.91a6,6,0,0,0,.48-1.57l-.24.15C50.92,13.29,51.39,12.91,51.39,12.91Z"/><path class="cls-1" d="M38.74,68.17l.48-.29a2.55,2.55,0,0,0-1.56.65A2.48,2.48,0,0,1,38.74,68.17Z"/><path class="cls-1" d="M40.36,67.66a1.57,1.57,0,0,0,.65-.14,4.71,4.71,0,0,0,1-.76l-.45.23a1.24,1.24,0,0,1-.74.38Z"/><path class="cls-1" d="M41.54,67.8a1.16,1.16,0,0,0,.51-.05,2.92,2.92,0,0,0,.75-.48,1.73,1.73,0,0,1-.8.25Z"/><path class="cls-1" d="M14,27.37a51.21,51.21,0,0,1,12.09-6.8c.94-.35,1.88-.75,2.79-1.19a18.23,18.23,0,0,0,2.77-1.76,44,44,0,0,1-6,2.91A46.93,46.93,0,0,0,17,25.23c-1.36.87-2.71,1.76-4,2.72C13.34,27.73,13.69,27.59,14,27.37Z"/><path class="cls-1" d="M30.83,17.34A65.49,65.49,0,0,0,18.08,23.8,44.77,44.77,0,0,0,13.63,27c.28-.23.67-.35.95-.57a47.92,47.92,0,0,1,9.2-5.83c1.89-.94,3.82-1.81,5.78-2.56l.32-.11C30.22,17.8,30.49,17.47,30.83,17.34Z"/><path class="cls-1" d="M28.08,23.71c-.06.07-.91.54-1.19.71a18.87,18.87,0,0,1-2.2,1A25.08,25.08,0,0,0,21.22,27c-1.89,1-3.74,2.15-5.53,3.32-.88.57-1.74,1.15-2.6,1.76-.08,0,.57-.31,1-.54s.8-.46,1.17-.73c.55-.41,3.78-2.44,4.17-2.64a26.76,26.76,0,0,1,3.3-1.42A27.13,27.13,0,0,0,28.08,23.71Z"/><path class="cls-1" d="M25.9,23.72a43.59,43.59,0,0,0-4.48,2c-1.63.81-3.21,1.74-4.77,2.69a42.72,42.72,0,0,0-4.95,3.4c.09-.08,2-1.16,2.36-1.44.6-.5,1.22-1,1.86-1.41.3-.22,2.85-1.66,4-2.23s2.37-1.09,3.6-1.53C24,25,25.79,23.76,25.9,23.72Z"/><path class="cls-1" d="M12.41,61v0a7.23,7.23,0,0,0-.91-1.78L11,58.43l-.34.26a2.69,2.69,0,0,1-.78.23c-.59.13-2.7.32-3.16.35a1.75,1.75,0,0,1-.8,0c-.14-.05-.23-.25-.38-.2s-.09.12-.05.19a2.86,2.86,0,0,1,.58,1.15s.75-.55,1.37-.21a6.52,6.52,0,0,1,.72,1.76,3.41,3.41,0,0,1-.74.79l0,.12v0l.51,1s.22.35.29-.06a3.57,3.57,0,0,1,.6-1.24l.61-.61.23.24a.75.75,0,0,1,.19.9c-.21.52-.83,1.37-1,1.74-.07.21.39.88.39.88s.17,0,.24-.17c.35-.85,1-1.77,1-2.27l0-.55a2.73,2.73,0,0,0,1.11-.07A1.4,1.4,0,0,0,12.41,61ZM8.15,60l.41-.09c.4-.05,1.18-.15,1.18,0a3.79,3.79,0,0,1-.52.83c-.2.13-.32.38-.52.5Zm2.71,1.73a.94.94,0,0,1-1.09-.34c.32-.31,1.27-1.83,1.39-1.65a1.76,1.76,0,0,1,.43.8A1.78,1.78,0,0,1,10.86,61.72Z"/><path class="cls-1" d="M13.57,64.82l.45.42a2.15,2.15,0,0,0,.49-.57,1,1,0,0,0-.38-1.31s-.77-.87-2.06.19c0,0-2.22,1.49-1.86,3.11,0,0,.52,1.54,1.89,1.36a.86.86,0,0,0,.75-.44s.07-.26.29.12a.28.28,0,0,1,0,.47s-.34.59-.82.64c0,0-.37,0-.09.38l.61.7s.35.3.43-.1a14.84,14.84,0,0,1,2.55-2.67s.5-.66.54-.15c0,0,.08.89.4.46a1.83,1.83,0,0,1,.42-.5s.37,0,0-.39L15.5,64.82s-.17-.45-.53,0l-.27.29s-.34.31.14.37a.7.7,0,0,1,.58.51l-1.53,1.55s-.16.31-.37,0l-.81-1s-.31-.44-.43.11a1,1,0,0,1-.84.81s-.42.08-.66-.51c0,0-.14-.3.49-1l1.81-1.81s.33-.41.7-.16C13.79,63.92,14.12,64.25,13.57,64.82Z"/><path class="cls-1" d="M14.36,70.62s-.4.36-.08.63l.4.42s.27.3.38-.1a1.42,1.42,0,0,1,.35-.64l1.27-1.31s.14-.23.16.07l-.63,2.72s-.16.76.36.56l2.55-1.78s.3-.29.19.21l-1.09,2.65a.36.36,0,0,0,.1.49l.35.27s.37.28.43-.08l1.61-4.46s.28-.63-.27-.88c0,0-.28-.11-.75.24l-1.79,1.29s-.28.06-.26-.27c0,0,.37-1.28.44-1.56,0,0,.39-1.28.09-1.53,0,0-.33-.48-.65-.1Z"/><path class="cls-1" d="M22,70.57s-.42-.42-.57.14l-1.25,4.52s-.27.4.14.58c0,0,.3.12.31.24s.41.15.62-.13l3.32-3.46s.36-.29-.08-.49l-.41-.21a.41.41,0,0,0-.63.24s0,.36-.59.86l-1,.91s-.22.17-.16-.14l.66-2.17A.6.6,0,0,0,22,70.57Z"/><path class="cls-1" d="M25.53,72.5s-.4-.32-.67.22l-1.94,4s-.5.48-.08.59l.39.21a.31.31,0,0,0,.48-.13l1.89-4s.38-.55.08-.76S25.53,72.5,25.53,72.5Z"/><path class="cls-1" d="M32.43,77.13s.42-.78-.21-.73c0,0-.74-.22-.84.65a3,3,0,0,0,.13.69l.23,2.4s0,.35.28.39c0,0,.31.13.62-.31L35,76.49s.37-.33-.14-.47c0,0-.51-.28-.68,0l-1.6,2.39S32.32,78.83,32.43,77.13Z"/><path class="cls-1" d="M37.42,77.23s-.11.43-.43.1c0,0-.44-.49-.71.06,0,0-.29.19.84,1.3a1.58,1.58,0,0,1-.24,2.36s-.79.86-2.64-.29a.4.4,0,0,1-.26-.59l.29-.45s.25-.5.6,0a1,1,0,0,0,1.07.72s1.05-.19-.14-1.77c0,0-1.09-1.75.32-2.19a1.85,1.85,0,0,1,1.26.19S37.65,76.81,37.42,77.23Z"/><path class="cls-1" d="M31.62,75a3.73,3.73,0,0,1-1-.31s-.72-.48-1-.08c0,0-.49.76,0,.78,0,0,.38-.2.55-.13,0,0,.18-.12.07.37l-1.13,3.15s-.1.57-.68,0c0,0-.23-.21-.29-1a2.51,2.51,0,0,0-.24-1.1,1.66,1.66,0,0,0,.88-.65,2,2,0,0,0,.21-1.52,1.34,1.34,0,0,0-.76-.74l-1.29-.6s-.6-.29-.48.29a1.87,1.87,0,0,1-.2.87l-1.54,3.27s-.32.45.13.59l.6.29s.33.28.41-.14a4.78,4.78,0,0,1,.37-1.21l.34-.8s.73.13.81,1.43c0,0-.14,1.62,1,1.89,0,0,1.25.48,1.66-.63L31,76s0-.43.25-.36c0,0,.11-.07.3.11,0,0,.41.21.41-.26A.39.39,0,0,0,31.62,75ZM27,76c-.45,0-.21-.39-.21-.39l.63-1.36c.08-.38.3-.16.3-.16l.37.27c.35.4-.21,1.39-.21,1.39C27.7,76.1,27,76,27,76Z"/><path class="cls-1" d="M42.1,80.84s-.55.13-1.1-1.19a1.9,1.9,0,0,0-.53-.7s.77-.2.74-1.37c0,0,.12-.91-1-1.11l-1.42-.08-.43.15.07.12-.16,3.79a.9.9,0,0,1-.06.49s-.34.48.19.49l.57,0s.48.11.43-.36l0-1.79s.5-.48.91.74c0,0,.69,1.85,2,1.17C42.25,81.22,42.64,81,42.1,80.84Zm-1.88-3.08a.77.77,0,0,1-.42.76c-.46.27-.42-.18-.42-.18V77.07c0-.33.5-.2.5-.2C40.35,76.87,40.22,77.76,40.22,77.76Z"/><path class="cls-1" d="M43.14,76.85s-1.83-.19-1.67,2a1.74,1.74,0,0,0,2.16,1.76s1.08-.39,1-2.14A1.74,1.74,0,0,0,43.14,76.85ZM43,80s-.61.2-.68-1.35.66-1.3.66-1.3.76.1.76,1.18C43.77,80.18,43,80,43,80Z"/><path class="cls-1" d="M48.61,78.59a1.34,1.34,0,0,0-.88-1s-.25,0-.09-.3a1.48,1.48,0,0,0-.72-2.09s-1.57.33-1.83.07a.45.45,0,0,1-.31.22s-.42.08-.07.59c0,0,.21.06.44,2.06a18.8,18.8,0,0,1,.21,2.07s-.31.76.24.66a3.33,3.33,0,0,1,1-.18s1.17-.3,1.34-.39C47.92,80.34,48.85,80.09,48.61,78.59ZM46,77.42l-.1-.82c-.2-.94.34-.85.34-.85.77-.27.72.88.72.88.1,1-.56,1-.56,1C45.81,77.85,46,77.42,46,77.42Zm1.67,1.84a.94.94,0,0,1-.95,1c-.39.08-.37-.25-.37-.25a11.26,11.26,0,0,0-.21-1.44c-.12-.61.94-.5.94-.5S47.69,78.13,47.63,79.26Z"/><path class="cls-1" d="M54.48,77.62s-.33-.09-.84-.84c0,0-.58-.74-1-.79a1.87,1.87,0,0,0,.55-1.61s-.06-1.24-1.57-.89l-1,.3s-.3,0-.15.56a24.15,24.15,0,0,1,.16,3.7s-.63-1-.84-1.28c0,0-.91-1.48-.84-1.78,0,0,.17-.76-.24-.44a2.48,2.48,0,0,1-.82.32s-.48-.07.17.54c0,0,.32.14,1,1.35l1.45,2.41s.28.54.67.27a.51.51,0,0,0,.41-.5l0-2.3s0-.62.69-.13a6.41,6.41,0,0,1,.83,1s.64,1,1.48.6C54.53,78.11,55,77.85,54.48,77.62Zm-2.61-1.78c-.38.29-.32-.08-.32-.08l-.07-1.34c-.07-.56.38-.43.38-.43.49-.05.56.91.56.91A1,1,0,0,1,51.87,75.83Z"/><path class="cls-1" d="M54.32,73.08s-.16-.33-.5,0l-.22.43s-.13.45-.41,0L53,73.09s-.19-.31.34-.41c0,0,1.57-.78,1.75-.91a.3.3,0,0,1,.53,0s.46.37,0,.56c0,0-.78-.08-.53.32l1.65,3.42s.63.41.3.7l-1.38.77s-.48.29-.59-.08c0,0-.22-.56.28-.67l.44-.12s.27,0,0-.57l-.44-.89s-.05-.32-.39,0c0,0-.59.57-.82.25a.41.41,0,0,1,.06-.71l.5-.34s.27,0,0-.44A4,4,0,0,1,54.32,73.08Z"/><path class="cls-1" d="M58.56,71.2s0,.61.49.19a.69.69,0,0,0,0-.85s-.31-.92-1.79-.23c-1.14.5-.66,1.82-.66,1.82s.08.94,2,1c0,0,1.44-.07.89,1.21,0,0-.33.57-1.14.21,0,0-.85-.45-.82.57,0,0,.07.55,1.4.53a1.75,1.75,0,0,0,1.57-2.13s-.08-1.27-2.21-1.34c0,0-1.3,0-.81-.93C57.46,71.24,58.37,70.45,58.56,71.2Z"/><path class="cls-1" d="M60.09,69.44s-.1-.27-.34,0a2.08,2.08,0,0,0-.3.48s-.17.42-.4.08l-.17-.4s-.16-.26.25-.55l1.61-1.34s.27-.35.55.06a.35.35,0,0,1,0,.6s-.5.12-.59.31c0,0-.2.12,0,.33l1.87,2.68a1.51,1.51,0,0,0,.58.44c.36.16.12.37,0,.56l-.36.31s-.45.41-.62-.13a2.62,2.62,0,0,0-.41-.93Z"/><path class="cls-1" d="M62.42,68.7s-.4-.26-.59.11c0,0-.54.45.21.74l2.62,1.24s.16.25.44,0l.32-.26s.22-.13,0-.66L64,66.14a2.1,2.1,0,0,1-.21-1s0-.61-.39-.14l-.54.53s-.43.53,0,.66c0,0,.27-.12.47.51l1.23,2.9s.11.19-.14.14Z"/><path class="cls-1" d="M68.43,64.93s-1.49-1.82-2.61-1.8a1.64,1.64,0,0,0-1.46.72s-.2.43-.36.41c0,0-.43.39.17.66,0,0,.69.25,2.55,2.58,0,0,.16,0,.26.65,0,0,.12.83.63.21l1.15-1.48A1.65,1.65,0,0,0,68.43,64.93Zm-.71,2.15-2.45-2.39a.43.43,0,0,1-.18-.75c.43-.43,1.17.2,1.17.2a7.11,7.11,0,0,1,1.63,1.6A1.1,1.1,0,0,1,67.73,67.08Z"/><path class="cls-1" d="M66.05,61.57s-.38.4.22.61l3.42,2.59s.27.42.5.11l.27-.29s.29-.38-.12-.56a2.93,2.93,0,0,1-1-.55s-1.94-1.6-2.31-1.81C67,61.67,66.48,60.86,66.05,61.57Z"/><path class="cls-1" d="M70.11,56.36s-.9-.48-1.05,0c0,0-.27.33.28.78l.79.81s.35.32-.18.24l-1-.29a.43.43,0,0,0-.66.24s-.33.29.29.89a21.41,21.41,0,0,1,2.16,2.41,28.89,28.89,0,0,1-3-1.21s-.51-.63-.82.11c0,0-.35.48.35.7l3.93,1.48s.51.15.67-.2a.57.57,0,0,0-.06-.82L69.64,59s-.21-.18.13-.17l2,.57s.5,0,.2-.38l-1.6-1.72s3.09.57,3.13,1.07c0,0,.37.42.47-.12l.16-.35s.33-.57-.38-.56"/><path class="cls-1" d="M33.77,4.58a.79.79,0,0,1-.78.77.75.75,0,0,1-.79-.75A.79.79,0,0,1,33,3.78.81.81,0,0,1,33.77,4.58Z"/><path class="cls-1" d="M45.72,4.21a.79.79,0,0,1-.77.77.76.76,0,0,1-.8-.76.78.78,0,0,1,.78-.81A.81.81,0,0,1,45.72,4.21Z"/><path class="cls-1" d="M71.19,22.82a.79.79,0,0,1-.77.77.75.75,0,0,1-.79-.76.77.77,0,0,1,.78-.8A.82.82,0,0,1,71.19,22.82Z"/><path class="cls-1" d="M77.49,47l-.24.14A10.38,10.38,0,0,1,76,53.5a13.77,13.77,0,0,1-.84,1.4l-.05.07.08.3c0,.11,0,.23,0,.33a2.78,2.78,0,0,1-.36.92l.23-.15a3.2,3.2,0,0,0,.34-.83,1.13,1.13,0,0,0,0-.65v-.12a14.9,14.9,0,0,0,.86-1.41A10.49,10.49,0,0,0,77.49,47"/><polyline class="cls-1" points="70.54 49.24 70.53 49.26 70.54 49.24"/><path class="cls-1" d="M69.83,54.31c-.07-.2-.3-.15-.23.14a1.3,1.3,0,0,0,.88,1.31c.23.18.86,0,1.22.42l.11-.13-.54-.61v.29c.05.08-.34-.37-.62-.39-.13,0-.33,0-.43-.09l-.38-.95"/><path class="cls-1" d="M70.5,53.75c.08.12.19.23.27.37l.08.18a1.64,1.64,0,0,0-.14-.33,1,1,0,0,0-.21-.21m-.22-1.39h0m0-.09v0"/><path class="cls-1" d="M70.85,54.3a1.73,1.73,0,0,1,0,.92h0a1.41,1.41,0,0,0,0-.92m-.57-1.92a4.69,4.69,0,0,1-.23,1.06s.25.16.45.32l-.07-.11a1.82,1.82,0,0,1-.15-1.27m0-.08,0,.07,0-.07m.26-.24-.23.13,0,.09,0-.09.23-.13h0"/><path class="cls-1" d="M70.57,52l-.23.13,0,.09v0l0,.07h0a1.82,1.82,0,0,0,.15,1.27l.07.11a1,1,0,0,1,.21.21,1.64,1.64,0,0,1,.14.33,1.41,1.41,0,0,1,0,.92l.24-.14a1.39,1.39,0,0,0,.05-.37,1.93,1.93,0,0,0-.46-1.13,1.36,1.36,0,0,1-.26-.84,2.18,2.18,0,0,1,.11-.68"/><path class="cls-1" d="M71.7,53.26l-.23.14c-.07.29-.15.58-.23.88l.23-.14c.08-.3.15-.59.23-.88"/><path class="cls-1" d="M71.83,51.93a4.76,4.76,0,0,1,.77-2.66,7.16,7.16,0,0,0-1,1.94,2.32,2.32,0,0,0,0,.86l.23-.14"/><path class="cls-1" d="M71,50.09h0m1.1-1.53-.23.14A4.78,4.78,0,0,0,71,50.09a5.09,5.09,0,0,1,1.1-1.53"/><path class="cls-1" d="M71.86,52.37l-.23.15a.79.79,0,0,0-.31.54l.13-.07.11-.07a.81.81,0,0,1,.31-.55"/><path class="cls-1" d="M8,50.65c.15.66.45,1.58-.5,2.09a.34.34,0,0,1,.15.38s0,.21.28.37c0,0,0-.57.19-.71.75-.57.23-2,.08-2.17S8,50.62,8,50.65Z"/><path class="cls-1" d="M11.72,52.67c-.1,0-.68-.25-.64.4l.42-.07.18-.16Z"/><path class="cls-1" d="M10.6,54.13l.21.1s0-.54,0-.69l-.15,0-.09.16S10.42,54,10.6,54.13Z"/><path class="cls-1" d="M9.39,55.22,9.72,55s.23.14.36.12.41-.49.54-.66l-.24.14S9.4,54.38,9.39,55.22Z"/><path class="cls-1" d="M12.64,51.82a1.11,1.11,0,0,0-.47,0,.94.94,0,0,0-.39.42c.16.05.57-.18.36-.08A.77.77,0,0,0,12.64,51.82Z"/><path class="cls-1" d="M12.37,50.32c-.09,0-.12-.14-.35,0s-.08.21-.17.25a.6.6,0,0,0,.41-.06Z"/><path class="cls-1" d="M10.46,48.73c-.24.29-.92.09-1,.16a1.2,1.2,0,0,0-.5.72l.23,0c.05-.12.25-.5.43-.47,1,.12,1.06-.3,1.12-.51Z"/><path class="cls-1" d="M12.47,47.74c0,.16,0,.32-.06.48l.13-.07.11-.07c0-.16,0-.32.06-.48l-.12.07Z"/><path class="cls-1" d="M12.86,49.08c.07.18-.09.38-.22.48l.24-.14c.13-.1.28-.3.21-.48Z"/><path class="cls-1" d="M78.71,40.89h-.27q0,.28,0,.56C78.45,63.78,61.35,82,40,82.29H39.5c-21.27,0-38.67-18-39-40.35,0-.19,0-.37,0-.56C.53,19,17.63.82,39,.53h.5c21.27,0,38.68,17.95,39,40.36H79C78.68,18.2,61.05,0,39.47,0H39C17.32.3,0,18.77,0,41.38q0,.28,0,.57C.3,64.62,17.92,82.82,39.5,82.82H40c21.64-.29,39-18.77,39-41.36q0-.28,0-.57h-.27"/><path class="cls-1" d="M5,53.19H5Z"/><path class="cls-1" d="M78.69,45.55a4.1,4.1,0,0,1-2.22,1.67,13.58,13.58,0,0,1-1.88.51,7.15,7.15,0,0,0-3.75,1.51s-.1,0-.2,0c.21-.9.38-1.81.51-2.72a35.25,35.25,0,0,0-.18-11S69.62,29.1,67.88,26c-2.71-4.84-5.59-9.27-10.78-12.71-.18-.12,7.64,6,11.46,15-.13-.15-1.24-1.1-2.15-.3a1,1,0,0,0,.17,1.42l.16,0h0a.41.41,0,0,0,.12.48v0a6.73,6.73,0,0,0-1.09,2.28A1.47,1.47,0,0,0,66,33.65a3.9,3.9,0,0,0,1.72.53s.58,6.16.58,8.63l-2.59,2.28a12.77,12.77,0,0,1-.07-2,37,37,0,0,0-1-9.28,16.28,16.28,0,0,0-1.43-3.62s.94,2.74,1.27,4.06a38,38,0,0,1,.94,9.22c0,.58.06,1.24.06,1.82,0,.11,0,.21.12.15S68.34,43,68.38,43c.1.34.22.6.58.64a2.26,2.26,0,0,0,.72-.07,1.48,1.48,0,0,1,1.31.13c0,.1,0,.2,0,.3-.37-.15-.9.26-1,.19.49.28.71-.14,1,0,0,.2,0,.39-.05.59-.17-.13-.34-.29-.34-.29a3,3,0,0,0,.32.55c0,.24-.06.44-.09.67,0,0-.56-.27-.62-.64l-.21,0c-.17.2.43.74.81.81-.05.4-.09.68-.15,1-.4.12-1,.28-1.16.11.1,0,.49-.35.41-.33-.28.05-.76-.33-.76-.32,0,.16.07.32.09.47a8,8,0,0,0-.94-.08.82.82,0,0,0-.53.23,19.32,19.32,0,0,1-2,2.08c-.1-.11-.06-.28,0-.42a2.1,2.1,0,0,0-.12-1.95A10.59,10.59,0,0,1,65,49.93c-.13.49,1.19-.36,1.57-.81,1.35-1.6,1.71-1.27,1.73-1.28a32.49,32.49,0,0,1-.94,5c-.2.81-.38,1.64-.65,2.42a2.42,2.42,0,0,0-.19.74c0,.64.81.43,1.28.24a33,33,0,0,1-7.41,10c-.71.65-1.43,1.27-2.15,1.84-.82-.45.06-2.87.29-3.47.59-1.58,1.4-3.07,2.09-4.6.35-.76.64-1.55,1-2.29a6.56,6.56,0,0,0,.9-2.21,1.62,1.62,0,0,0,.79-.32c0,.18-1,2.67-1.51,3.76s-.93,2.09-1.43,3.13c-.36.77-.81,1.48-1.2,2.24a10.36,10.36,0,0,0-1.06,3.41c0-.06.18.24.24-.14.25-2,1.49-3.54,2.33-5.29a46,46,0,0,0,2.64-6.52,5.15,5.15,0,0,0,.28-1.31c0-.21.15-.29.29-.45a1.39,1.39,0,0,0,.41-1l-.23.14a1.28,1.28,0,0,1-.33.84c-.06.1-.38.36-.37.48a1.84,1.84,0,0,1,0,.5s-.69.45-1,.31-.21-.23-.35-.31a1.61,1.61,0,0,0-1.51.17c-.61.39-1.73,1.3-1.85.59.25.06.64-.18,1.1-.58a5.92,5.92,0,0,1,2.6-1c0-.12.52-.31.52-.31a7.13,7.13,0,0,0-3.76,1.5,3.78,3.78,0,0,0,1-1.49,17,17,0,0,0,2.39-1.73c.42-.42.35,0,.61-.57a20.53,20.53,0,0,0,1.39-6,29.09,29.09,0,0,0-.13-7.39,28.64,28.64,0,0,0-2.22-7.89l.29-.16c.13-.09.17-.41,0-.31a13.69,13.69,0,0,1-5,.74,1.48,1.48,0,0,1-1.06-.39,7.56,7.56,0,0,1-.79-2.08c3.79.39,5.34-1,5.6-1.76.16-.48-1.15-2.75-1.35-3h0c-1.84-5.87.71-6,.8-6-.17,0-3.05-.36-1.41,5.11a20.6,20.6,0,0,0-3-3.71,5.9,5.9,0,0,1,.37.72,27.34,27.34,0,0,0-2.65-1l-.3-.63c1.81.84,2.23.22,2.32.2A5.06,5.06,0,0,1,53.21,17c-.25-.58-.71-1.71-.75-1.7a24.41,24.41,0,0,0,1,3,1.13,1.13,0,0,1-.3-.1c-.21-.1-.79-.83-1-.93s.14.51,0,.44-.76-.94-.9-1,.05.6-.09.54c-.52-.21-1.7-.66-1.69-1.45.15,0,.31-.64.41-1a2.87,2.87,0,0,0,.74-1.51l-.11-.05a3.45,3.45,0,0,1-.4.59.92.92,0,0,0-.07-.58,4.91,4.91,0,0,0-1.56-.67H48.2s.79.3,1.15.5c.67.35.33,1.4.32,1.46a2.36,2.36,0,0,0-.68-.68,4.63,4.63,0,0,0-.57-.39c-.1,0-.13.11-.14.09.21.17.65.61.69.65a2.34,2.34,0,0,1,.5.76,3,3,0,0,1-.12.49,5.22,5.22,0,0,0-.63-1A5.19,5.19,0,0,0,47,13.37a7.59,7.59,0,0,1-2.67-2.43,5.67,5.67,0,0,0,2.11,2.41c.54.26,1.32.68,1.31.7-.22.83-1.15,1.43-1.47,1.34a1.42,1.42,0,0,0,1.23-.32,2.51,2.51,0,0,0,.6-.76,7.13,7.13,0,0,1,1.13,1.57c-.06.28.32.82.48,1a7.71,7.71,0,0,0,2.82,1.44c.75.27,3.5,1.16,4.08,1.45a37.23,37.23,0,0,1,2.88,4.37,25,25,0,0,1,.92,2.58C59.1,28,55.74,28,55.74,28s-.38-.82-.63-.69c0,0-.63-1-.73-.86A5.43,5.43,0,0,1,54.89,29s.11.76.27.44c0,0,0-.77.33-.33a8.62,8.62,0,0,1,.36.89c.05.36.75.76.75.76a10,10,0,0,0,1.08,2.75c.14.44,1.12,2.47,1.38,3.09a8.23,8.23,0,0,1,.41,2c.16,1.07.75,6.76.75,6.76a17.64,17.64,0,0,1-.6,4.42,4.58,4.58,0,0,1-3.41,3.13A6.54,6.54,0,0,1,55,53a3.93,3.93,0,0,0,1.68-2.24c0,.06-1.39,2-2.49,2.26a8.3,8.3,0,0,0,1.51-1.84c.2-.31.36-.69.53-1a3.26,3.26,0,0,0,.15-1.69,2.91,2.91,0,0,1,.41,1.09s.17.25.19-.05a3.31,3.31,0,0,0-.84-1.87c-.34-.43-.66-.9-1-1.31a5,5,0,0,0-2.73-1.57c-.17,0-1.22-.76-1.65-.95a5.5,5.5,0,0,0-1.63-.46.92.92,0,0,1-.38-.19,2.93,2.93,0,0,0-2.37,0c-.54-.39-2.29-1.27-2.29-1.28A9.49,9.49,0,0,1,45,39.72c.33-.66,1.21-2.17,1.28-2.28a9.56,9.56,0,0,1-.79-2.26,3.56,3.56,0,0,0,1.74-.79c-.07.05-2.73,1.36-4-.55l-.33-.2a.92.92,0,0,1-.23-.36,1.37,1.37,0,0,1,0-.56c0-.09.4-1.88.45-2.31A2.58,2.58,0,0,0,42,28.11a4.15,4.15,0,0,1,.88,1.63A13.34,13.34,0,0,0,40,31c-1.2.5-1.82.95-3,1.33a12.34,12.34,0,0,1-6.39.39,2,2,0,0,1-1.34-.43,1.55,1.55,0,0,1-.3-1.13,14.61,14.61,0,0,1,1.14-3.32,30.63,30.63,0,0,1,4.54-6.76,17.45,17.45,0,0,0,1-1.53,10.92,10.92,0,0,1,1.84-1.27,5.53,5.53,0,0,1,2.83-1s.15.73.53.76a6.1,6.1,0,0,1,2.8.81h0a8.29,8.29,0,0,1,.71,2.81c0,.12-.23.55-.54,0a4.31,4.31,0,0,0-.79-2.44,2.36,2.36,0,0,0-1-.46,2.11,2.11,0,0,1,1,1,4.91,4.91,0,0,1,.56,1.83c0,.09-.4.88-.81-.64-.15-.53-.52-1.23-1.05-1.31a3.57,3.57,0,0,0-2.74.48c.49-.27,3.07-1,3.43.76a3.88,3.88,0,0,1-1.3.2,10.92,10.92,0,0,0-1.87,0,1.45,1.45,0,0,0-1.33.87c-.47,1-.95,1.93-1.37,2.91-.15.33-.26.65-.37,1A22.91,22.91,0,0,1,35.16,28a17.56,17.56,0,0,1-1.08,1.72l.22,0a18.68,18.68,0,0,0,1.28-2,10.28,10.28,0,0,0,2.82-2.09,21.16,21.16,0,0,1,4.54-4c-.06,0,.28.33.6.28l.24-.14s.79.84.87-.26a7,7,0,0,0-.49-2.33c.12.13.59.49.72,2.53a1.26,1.26,0,0,1,.6.8.9.9,0,0,0-.33-.89c-.17-.1-.15-.3-.14-.46a3.06,3.06,0,0,0-.34-1.57,3.29,3.29,0,0,0-2-1.57,7.53,7.53,0,0,0-1.51-.25c-.38,0-.49-.32-.5-.7,0-.17.26-.23.23-.43s-.2-.5-.23-.75h0c.16,0,.3.08.45.12a1,1,0,0,0,.43.09s.05,0,.11-.07-.29-.27-.47-.32a1.07,1.07,0,0,1-.5-.19c-.18-.17-.13-.56,0-.78L41,15a.61.61,0,0,0,.77-.44.67.67,0,0,1-1,0,.55.55,0,0,0-.28.2c-.6.15-.5-.5-.43-.76.18-.66.5-1.27.69-1.93a3.9,3.9,0,0,0,0-1,7.44,7.44,0,0,1,.77-2.35.49.49,0,0,1,.27-.18c.08,0,.45-.08.41-.26l-.84-.05-.24.16h0a2.1,2.1,0,0,1,.37.09,9.82,9.82,0,0,0-.86,1.78c0-.47.21-1.58.2-1.69s-.09-.25-.12-.38.18-.36.35-.49a7.65,7.65,0,0,1,3.25-1.27,8.89,8.89,0,0,1,6.23,1.26,5,5,0,0,1,1.82,3.61c-.29.63-.59,1.56-.84,2.18-1,2.32.42,2.83.43,2.85-.58-.42-.39-2-.18-2.88a11,11,0,0,1,.62-1.83,17.88,17.88,0,0,0,0,2.08,2.43,2.43,0,0,0,2.42,2.71c.31.11-.15-.92-.15-.92-.26-.76-.74-.68-.74-.68a2.82,2.82,0,0,1-1.2-.47,6.25,6.25,0,0,1-.12-.87,3.33,3.33,0,0,1,1.13.35c.88.41.43-.61.43-.61,0-.73-.51-.54-.51-.54a1.74,1.74,0,0,1-1-.45,9.85,9.85,0,0,0,0-1c.2-.1.68.16.68.16.63.4.44-.33.44-.33,0-.48-.66-.51-.66-.51a1,1,0,0,1-.61-.32,4.67,4.67,0,0,0-.19-.62,1.42,1.42,0,0,0,1.43.09,3.88,3.88,0,0,0,1.4-2c.15-.37.72-1.58.73-1.72s.57-.06.46-.37c0-.13-.66-.35-.74-.4-.38-.21-.49-.11-.5-.1h0c-.11.11,0,.25,0,.44A10.72,10.72,0,0,1,53.9,8.5c-.19.29-.39.56-.75.49s-.77-.35-.66-.74.91-2.35,1-2.71c.23-.57.44-.68.44-.68h0c.37-.24-.34-.45-.49-.51l-.84-.4a.52.52,0,0,0-.43,0c-.13.13,0,.37,0,.53a15.67,15.67,0,0,1-.6,1.76c-.18.48-.57,1.55-.59,1.61a4.84,4.84,0,0,0-.92-.64l.08-.08A1.45,1.45,0,0,0,50,5.51a1.37,1.37,0,0,0,.6-2c-.43-.68-1.28-.72-2-.87l-.83-.22c-.13,0-.51-.16-.54,0h0l0,.23a1.72,1.72,0,0,1,0,1.12l-.59,2.32a7.27,7.27,0,0,0-3.11.27,3.74,3.74,0,0,1,.09-.91c0-.1.09-.38,0-.43s-.63.46-.76.6a1.87,1.87,0,0,1-.95.64c-.17.06-.61.21-.61-.12s0-1.45,0-1.9a.78.78,0,0,1,.95.41c0,.09.31,0,.36-.06a4.35,4.35,0,0,0,0-1.2c0-.12-.39.08-.42.11-.23.1-.76.13-.91-.06,0-.46,0-.92,0-1.38a3.23,3.23,0,0,1,.54,0,1.51,1.51,0,0,1,.9.37c.19.16.3.38.51.34,0,0,.28-.08.14-.59a1.55,1.55,0,0,0-.25-.62,20.51,20.51,0,0,0-2.22-.19c-.34,0-1-.17-1.31.13-.11.11,0,.22.06.3a1,1,0,0,1,.25.65c0,.38.06,3,.06,3.08a9.06,9.06,0,0,1-.3,1.33c-.06.21,2.22,0,2.64,0-.34.16-.67.34-1,.53s-.9.43-.86,1c0,.21.15.35.12.58s-.14.56-.17.86a5.63,5.63,0,0,0,0,1.31c-.05.34,0,.66,0,1a14.1,14.1,0,0,1-.54,1.42c-.11.36-.42.85-.16,1.21a.69.69,0,0,0,.72.18s-.38.69,0,.94a1.76,1.76,0,0,0-.08,1,10.32,10.32,0,0,0-1.76.4,8.2,8.2,0,0,0-1.54.89,5.24,5.24,0,0,0-2.31,2.45c-.07.12-.65.81-.84,1.06a27.33,27.33,0,0,0-4.7,7.87c-.27.76-.74,2.06-.23,2.77q-2.67-.11-5.34-.18c-1,0-1.91,0-2.87,0a4.19,4.19,0,0,0-1.25.28,22.83,22.83,0,0,1,2.71-.06c1,0,6.29.17,6.51.21a1.62,1.62,0,0,0,.5,0c.39.37,1,.26,1.45.4a9,9,0,0,0,3.07.27c1-.06,1.88-.14,2.59-.21a27.52,27.52,0,0,0,4.85-.08c-1.3,0-2.6,0-3.9-.05.13,0,4.91-2.33,5.65-2.48a1.63,1.63,0,0,1-.07.45,15.62,15.62,0,0,0-.36,1.94c0,.17-.11.31-.12.48,0,.47.46.58.7.88a2.74,2.74,0,0,0,2.06,1.06A9.16,9.16,0,0,0,46,37.59a21.26,21.26,0,0,0-2.09,4.23c-.12,0-.7-.18-.72-.28a3.61,3.61,0,0,0-.74-1.47c-.22-.28-.46-.64-.83-.68l-.8-.08-6.2-.64c-.84-.08-1.77-.23-2.61-.32l-.25.2c.32.38.65.77,1,1.18-.55,0-1.14,0-1.68,0l-.1.11h0a8.4,8.4,0,0,1,.65.7c-.88.13-1.57.22-2,1.06a4.47,4.47,0,0,1-1.07,1.5c-.31.28-.71.58-.66,1.15,0,.22.25.25.47.22h0a8.9,8.9,0,0,0-2.46,3.76,13.41,13.41,0,0,0,.45,4.15,41.11,41.11,0,0,1,.48,6c0,.11.18,4.16.26,4.94,0,.45.27.46.27.46a5.06,5.06,0,0,1,1.4.46.94.94,0,0,1,.48.48c.06.2,0,.43.07.64.24.75,1.41.33,1.94.29.88-.06,1.76.23,2.64.25a6.3,6.3,0,0,1,1.76.07c.1.07.16.18.25.26.44.33,1-.12,1.08-.16A9.12,9.12,0,0,0,37.76,65c0,.41.51,1,.44,1.18S37,67.39,36.88,67.91c0,.2-.09.41-.15.61-3.34-.15-12-.44-12.95-.47-.48,0-.23.33-.23.33,3.33.16,11.81.27,13.13.31a2.45,2.45,0,0,0-.13.91,6.24,6.24,0,0,0-1.48,2.75c-.07.5.32.53.38.52a6.68,6.68,0,0,1-2.53.95A32.25,32.25,0,0,1,11.17,56.29a4.56,4.56,0,0,1-1.74,1.07c0-.29-.22-.59.25-.72s.3-.64.35-.73a4.78,4.78,0,0,1,.75-.49h0c.15-.11.85-.94,1.08-1.15a1.64,1.64,0,0,0,.44-.88c0-.26.15-.34.54-.41s.57-.65.59-.9a3,3,0,0,0-.22-.74A2,2,0,0,1,13.32,50c.24-.38.65-.75,0-1.48-.19-.22-.08-.68-.08-1,0-.46-.28-1.16-1.8,0-.1.08-.24-.12-.39-.1s-.51,0-.86.75a.38.38,0,0,1-.5.21c-.16-.06-.36.08-.52.16a2,2,0,0,1-.6.16c-.08-.32-.14-.63-.2-1a33.69,33.69,0,0,1,2.54-20.77c2-4.17,4.3-8.12,7.76-11.1l-.24.15c-5.34,4.6-8.65,11-10.24,18a35.56,35.56,0,0,0-.05,15.42l0,.12c.29-.14,1.06-.86,1.14-.86,1.12.07,1-.43,1.21-.7a.52.52,0,0,1,.56-.3.84.84,0,0,0,.56-.05c.33-.14.78-.48,1.12-.42s.18.29.07.81a.53.53,0,0,0,.24.66c.4.2.27.54.11.88s-.33.38-.42.61.11.62.11,1.14c0,.1.2.67.19.76,0,.29-.52.57-.94.54-.11,0-.23.32-.23.42a2.88,2.88,0,0,1-.11.66,1.88,1.88,0,0,1-.75.77,1.36,1.36,0,0,0-.42.68c0,.11-.51.34-.83.37-.53.05-.28.75-.32.85a2.33,2.33,0,0,1-.4.31,1.36,1.36,0,0,0-.38.87l-.33,0a6.68,6.68,0,0,1,.46-2.48,23.39,23.39,0,0,1,1.25-3A36.8,36.8,0,0,1,12,48.42c0,.07-.07-.15-.27.06A60.53,60.53,0,0,0,8.36,55c0,.09-.25.1-.4.08a1.15,1.15,0,0,1,0-.8.81.81,0,0,0-.11,1.2c0,.29-.2,1.1.21,1.35.08.24.23.84-.16.81a2.61,2.61,0,0,1-.59-1.43c0-.17.16-.34,0-.59S7,55,7.11,54.72c.05-.14.4-.85.16-1.1a1.1,1.1,0,0,1-.05-1.55c.13-.19.59-.29.43-.89-.05-.19-.1-.3-.15-.49-.14-.54.28-.89.7-1.16a3,3,0,0,0-1-.77A11.38,11.38,0,0,0,4,47.92,5.11,5.11,0,0,1,.5,46l.14.81A3.08,3.08,0,0,0,2,47.92a4.48,4.48,0,0,0,1.26.5c-.38.18-.8.36-.74.94,0,.05.05.7.05.85a2.82,2.82,0,0,1-.23,1c-.17.41.2,1,.4,1.4a3.92,3.92,0,0,1-.11.56A3.22,3.22,0,0,0,4.2,55.58a2.18,2.18,0,0,0,.81,1c.21.14.64.3.55.59A10.35,10.35,0,0,1,2.61,55l-.11.49c4,4.76,8.1,1.71,8.4,1.42A33.09,33.09,0,0,0,21.43,69a32,32,0,0,0,11,5.14,1.27,1.27,0,0,0,.89,1.16.89.89,0,0,0,.61-.1c.25,1.27,2.17-.3,2.44-.56-.06.06-2.12,1.22-2.22.6,0-.2.13-.32.24-.39.27-.19.85-.65.88-.67A14,14,0,0,0,33.9,75c-.38.05-.7,0-.88-.34a.86.86,0,0,1,0-.59,11.31,11.31,0,0,0,1.16-.28c1.89-.52,4.22-2.61,4.43-3.43a46.51,46.51,0,0,1,5-1.38,16.08,16.08,0,0,0-6.32,1.64c-.77.36-1.5.8-1.31,1.1s.53-.15.53-.15c.23-.41,1.57-1,1.58-1a7.45,7.45,0,0,1-1.75,1.76c-.09,0-.54.49-.82.06s1-2.36,1.18-2.51.23-.24.23-.54a3.23,3.23,0,0,1,.28-.81,2.17,2.17,0,0,0,.28-.66,3.65,3.65,0,0,1,.72-1.17,1.12,1.12,0,0,0,.37-1c-.18-.4-.52-.88-.45-1.34-.14-.29-.42,0-.54.2a7.33,7.33,0,0,1-1.18,1.49c-.13,0-.25-.12-.3-.22s.12-.2.11-.29l-1.2,0a4.64,4.64,0,0,1-1.75-.12,9.37,9.37,0,0,0-1.73-.25,4.57,4.57,0,0,0-1.4.08c-.12,0-.64.06-.62-.81,0-.27-.5-.45-.7-.55a10.78,10.78,0,0,0-1.21-.34h0c-.21,0-.23-.41-.25-.56a39,39,0,0,1-.06-4.42,26.36,26.36,0,0,0-.6-6.35,17.09,17.09,0,0,1-.39-3c.08-3.29,3.23-5,3.27-5l2.78,0c-.41.14-4.42,1.58-3.81,5.1a12.44,12.44,0,0,0,1.8,4.3,33,33,0,0,0,3.23,3.92A37.41,37.41,0,0,1,30,52.19c-2.52-4.58-.06-5.94.57-6.48a9,9,0,0,1,3.06-1.36c.12.93,1.4.63,1.4.63.23.25,3.94,4.32,4,4.32,2.23.06,1.2.15,5.89.28.44,0,5.22.07,5.51-.35s0-1-.1-1.26a8.2,8.2,0,0,0-1-1.57q-.51-.68-1.07-1.31A7.15,7.15,0,0,1,50.2,47v-.16c-1-2-2.32-2.3-2.33-2.3h0L47.34,44a5.54,5.54,0,0,0-.57-.52,2.67,2.67,0,0,1,2.12,0,5.36,5.36,0,0,1,1.56.42c.43.17,1.54.92,1.73,1a6.57,6.57,0,0,1,2.52,1.58c.37.37.79.76,1.13,1.16A3.07,3.07,0,0,1,55.51,51c-.26.35-1.53,2.35-3.37,2.1-.64,0-1.28,0-1.93,0a88.21,88.21,0,0,1-9-.69A3.75,3.75,0,0,1,39,51c-.59-.74-1.29-1.35-1.86-2.1a13.19,13.19,0,0,0-1.93-2S36.62,48.76,37,49.2a22.91,22.91,0,0,0,2.57,3v.27a7.68,7.68,0,0,1-3.45-2.93c-.08-.12-.23-.1-.13.11l.63.94-1-.73s-.88-.31-.83.33,2.58,1.24,3.49,1.93c-.18,0-2.3-.78-3.32-.28-.72.34-3.64-.09-3.66-.07,2.34,1,3.51.46,5.27.4a9.55,9.55,0,0,1,1.39.27,1,1,0,0,0,.61-.13,2.87,2.87,0,0,0,.47.28h0a6,6,0,0,1,1.47,4.53,3.29,3.29,0,0,1-2.9,2.53,2.89,2.89,0,0,0,2.79-1c1-1.52.24-3.95.23-4a4.14,4.14,0,0,1,1.07,3.5,10.78,10.78,0,0,1-.69,2.59,2.87,2.87,0,0,1-.28.52l-.15.2S41.71,60.77,42,58c0,.14,0,.29,0,.43.1,1.15,0,3,.41,3.64a14,14,0,0,1,0-3.15c.23.24,1.47,1.54,1.53,1.68.25.53-1.08,2.18-1.09,2.58,0,.24.27,1.84.35,2.37a15.36,15.36,0,0,0,.78,3,15.93,15.93,0,0,1,1.15,2.4,2.07,2.07,0,0,1-.81,2.15c-.09.07-3.15,1.84-3.3,2a5.09,5.09,0,0,1-2.22.89s-.62.48-1,.41c-.61-.09.08-.68.3-.89h0s-1,.77-1.48.69-.35-.31-.11-.49.8-.66.8-.66a13,13,0,0,1-1.38.8c-.56.16-.66-.27-.66-.27s0,.7.74.49c.2.49.81.44,1.3.13-.09,1.09,1.69.13,1.76.09a3.83,3.83,0,0,0,2.3-1.08l2.52-.36c.21.32.68.14.83.09,0,.36.46.52.73.62,1.08.37,2.09-.8,2.58-1.62l.08-.13a32.93,32.93,0,0,0,15-9.8A34,34,0,0,0,70.5,49.82l.63-.43c-.11.19-.08.35-.27.73s.14.06.14.06a14,14,0,0,1,2.14-1.87c-.18.45.13,1.38.07,2a10.81,10.81,0,0,1-.56,2.26s0,0-.8,2.23c-.21.58.5,1.38.55,1.42s.08-.86.4-1.14a1.12,1.12,0,0,1,0-.5,53.65,53.65,0,0,1,3-6.38,3.3,3.3,0,0,1,1.51-1.08,10.29,10.29,0,0,1-1.37,6.23,12.43,12.43,0,0,1-1,1.29l-.25,0a.82.82,0,0,1,.33-.55.94.94,0,0,0-.55.55h-.13a11.57,11.57,0,0,1,.8-1.89,10.69,10.69,0,0,0,1-1.74c.34-.81.63-1.86.89-2.7,0,.05-.11-.18-.25.15a13.89,13.89,0,0,0-1.42,2.79c0-.07.15.22.24-.15.16-.69.26-.52.38-.42l-.15.36a8.06,8.06,0,0,1-.55,1.16c-.21.29-.84,1.26-1,1.55s-.25.55-.39.81c-.32.64-1,1.17-1.06,1.87,0,0,.13,0,.23-.14a4.84,4.84,0,0,1,1.22-1.5h0A1.54,1.54,0,0,1,75,55s.37.39-.45,1.35a5.47,5.47,0,0,1-.84-.12c-.61-.12-.53.26-.53.26,1.13.22,2.43.29,3.19-.7l-.07-.22a1.84,1.84,0,0,1-1.31.78,3.29,3.29,0,0,0,.49-.83c.05-.21-.12-.39,0-.58s.5-1,.76-1.5A10.78,10.78,0,0,0,77.51,47a2.17,2.17,0,0,0,1.08-1ZM66.59,33.36l.31-.22.23.19c.16.61.39.38.53.57-.49,0-2-.13-1.67-1.77A9.69,9.69,0,0,1,67,30c.21,0,.42-.07.63-.09s.54-.06.71.15c0,0-.11-.52-1-.27-.08,0-.42.11-.31-.33.14,0,.31,0,.39-.18a.48.48,0,0,1,.75-.22c-.15-.34-.34-.42-.58-.26s-.23.41-.52.44c-.49.06-.72-.55-.39-1.09s1.23-.22,1.52,0a3.73,3.73,0,0,1,.65.55,41.43,41.43,0,0,1,1.88,6.69l-.22.06a4.65,4.65,0,0,0-2.75-3.22,5.92,5.92,0,0,1,2.53,3.32c-.13-.31-2.31-3.52-3.68-2.67C66.15,33.1,66.59,33.35,66.59,33.36Zm3.32,9.95c-.24,0-1.3.38-1.37-.54,0-2.46-.57-8.87-.72-9.61a4.64,4.64,0,0,1,.62.49,6,6,0,0,1,1.08,1.16c.1,1.09.33,2.68.39,3.77A24.07,24.07,0,0,1,69.91,43.31Zm.44-.07a66.76,66.76,0,0,0-.25-7,.62.62,0,0,1,.67,0,35.56,35.56,0,0,1,.26,7A2.34,2.34,0,0,0,70.35,43.24ZM67.4,48.15l.25-.14ZM42.76,21.42a16.32,16.32,0,0,0-4.71,4.32A5.31,5.31,0,0,1,36,27.07c.07-.13,2.32-5.26,2.52-5.48a2.23,2.23,0,0,1,1-.31c.6,0,1.21,0,1.8,0a4.46,4.46,0,0,1,1.44,0h0l.07.19Zm11.66-5.73s.32.87-.5.34c0,0-.45.13-.69-.93C53.23,15.09,54.28,15.22,54.42,15.69Zm-1.56-2.75a2.81,2.81,0,0,1,.7.24c.57.07.4.39.4.39-.17.2-.91-.19-.91-.19C52.53,13.25,52.86,12.94,52.86,12.94Zm1-8h0Zm-.08,0,0,0L53.72,5ZM48.64,3.29,48.37,4.4c.05-.31.12-.63.17-.95h0l.07-.14a.91.91,0,0,1,.82.38c.23.48,0,1.23-.55,1.29-.19,0-.48,0-.56-.21Zm-.29,1.11,0,0,0-.11a1.37,1.37,0,0,1,.77.21c.31.22.11.74,0,1.06-.32-.11-.63-.21-.95-.3a5.77,5.77,0,0,1,.15-.86Zm-5-.17-.23.27ZM6.65,49a3.31,3.31,0,0,1,.45.2,3,3,0,0,1,.75.37s-1.14-.23-.51,1.66l0,.17C7.13,50.91,6.41,49.43,6.65,49Zm-1.79.39a1.28,1.28,0,0,1,.24-.71c.08,0,.85.13,1.14.21a4.41,4.41,0,0,0,1.12,2.56c-.05.31-.43.56-.54.89A6,6,0,0,0,6.34,54c-.18-.12-.36-.27-.52-.39l-.08-.06v0c-.14-.64.69-1.07.76-1.86-.07,0-.11,0-.24.15a3.16,3.16,0,0,0-.77,1.53A2.19,2.19,0,0,1,5,52.62c0-.27-.06-.6-.09-.91a2.62,2.62,0,0,1,.76-1,1.78,1.78,0,0,0-.79.48c0-.11,0-.2,0-.29A12.44,12.44,0,0,1,4.86,49.37ZM4.1,54a1.28,1.28,0,0,1-.42-.88,1,1,0,0,0,0-.44,3.44,3.44,0,0,0-.19-.91.78.78,0,0,1-.08-.52,1.24,1.24,0,0,1,.15-.54,3.06,3.06,0,0,0,.12-1.21c-.11-.14-.23.1-.23.15a4.11,4.11,0,0,1-.12,1.17,1.77,1.77,0,0,0-.18.51c0,.28.15.49.2.73a2.69,2.69,0,0,1,0,1.15c0,.06.57,1.35.75,1.74h0l0,.27A2.56,2.56,0,0,1,3,52.61a4.77,4.77,0,0,1-.2-.58,2.33,2.33,0,0,1,0-1.31,1.94,1.94,0,0,0,.14-1c-.22-.89.45-1,.81-1.19l.86.1a3.91,3.91,0,0,0-.06.9A11.7,11.7,0,0,0,4.68,53,1,1,0,0,0,4.1,54Zm2.26,3.44c0-.83-1.25-1.11-1.3-1.16a2.14,2.14,0,0,1-.5-.58,3.2,3.2,0,0,1-.23-1.39A1,1,0,0,1,5,53.19H5a7.63,7.63,0,0,0,.59.58,5.19,5.19,0,0,0,.85.58,1,1,0,0,1,.19.61c0,.42-.19.88-.15,1.29A2.18,2.18,0,0,0,7,57.55,4.47,4.47,0,0,1,6.36,57.41ZM37.9,64.57h0Zm-10.56-.76Zm2.21-19.47h0Zm20.34,3.57c.49,1.11.13,1.09.05,1.18a3.86,3.86,0,0,1-1,.13c-1,0-1.87,0-2.82,0L39.35,49c-.1,0-.15,0-.21-.05l-1.69-1.82c-.69-.73-1.36-1.47-2-2.2-.1-.1-.19-.29-.34-.25A.93.93,0,0,1,33.79,44a39.85,39.85,0,0,0-4.58,0,4.74,4.74,0,0,1-.9.2c-.46-.07,0-.57.2-.76a3.79,3.79,0,0,0,1.1-1.38,2.21,2.21,0,0,1,.56-.76,3.63,3.63,0,0,0,.76.34,19.57,19.57,0,0,1,2.84,1.51,11.89,11.89,0,0,0-2.57-1.65,1.44,1.44,0,0,1-.8-.38,3.92,3.92,0,0,1,1.39-.39,16.22,16.22,0,0,1,1.87,1.8,17.87,17.87,0,0,0-1.41-1.72c-.35-.33-.71-.66-1.08-1,.52,0,1,0,1.54,0a10,10,0,0,1,1.18,1.45,3.29,3.29,0,0,1,.67,1.56c0,.08-.24.44-.23.71,0,.44.34.44.45.8l.23-.15c-.1-.34-.45-.34-.45-.74s.2-.48.22-.73c.07-.53-.4-1.18-.66-1.59a23.15,23.15,0,0,0-1.85-2.57c3.07.31,6.13.69,9.2,1,.67.05,1.46,1.83,1.49,2.12a20.29,20.29,0,0,0-5-.48,11.68,11.68,0,0,0-2.25.08,1.12,1.12,0,0,0-.75,1s.22-.87,1.53-.86c.74,0,1.89,0,2.57,0,2.57.11,5.33.37,7.38,2.07A25.37,25.37,0,0,1,49.89,47.91ZM37.68,75.77l-.17.12Zm2.78-.25a5.36,5.36,0,0,0,.54-.4A2.13,2.13,0,0,1,40.47,75.52ZM59.69,56.15a5.32,5.32,0,0,0,.93-.74,1.1,1.1,0,0,1,1.45.06s-.25.3-.37.43a7.24,7.24,0,0,1-2,1.72C59,58,56.1,57,57.14,55.4a1.13,1.13,0,0,1,.41-.17,1.44,1.44,0,0,0-.15.47.45.45,0,0,0,.6.54A1.9,1.9,0,0,0,59.69,56.15Zm1.07-9c-.11-1.15-.13-2.31-.23-3.46s-.22-2.32-.36-3.48c-.07-.5-.07-1-.1-1.51a15.23,15.23,0,0,0-.4-2.56c.22.22.76.63.78.65a18.77,18.77,0,0,1-2.55-3.43,10.21,10.21,0,0,1-1-2.46,10.74,10.74,0,0,0,5-.44A29.47,29.47,0,0,1,64.2,38.9a26,26,0,0,1,.19,4,30.08,30.08,0,0,1-.48,4.76,12.25,12.25,0,0,1-1.26,3.93,2.2,2.2,0,0,1-.58.67c-.58.5-1.16.72-1.89,1.34l-.32.07c-.25.16-.39.73-.54,1A5.35,5.35,0,0,1,58.12,56c-.23.17-.53.15-.5-.4,0-.21,2-3.25,2.16-3.54a2.21,2.21,0,0,1,.6-.67.86.86,0,0,0,.32-.27A16.28,16.28,0,0,0,60.76,47.12Zm-.61,4.39.14-.1Zm-19.82,1a.73.73,0,0,1-.44.19A1.2,1.2,0,0,0,40.33,52.53Zm1.42,22.32-.11.08.08-.06,0,0Zm6.68-2.73a5.42,5.42,0,0,1-1.06,2.07c-.88,1.13-2.12,1.11-2.25.65-.08-.28.62-.86.8-1.13a2.16,2.16,0,0,0,.28-1.22,2.87,2.87,0,0,1-.78,1.38,4.79,4.79,0,0,1-.71.8.36.36,0,0,1-.51-.06c-.2-.38.06-.49,0-.46,1-.49,1.24-1,1.27-1.55a2.3,2.3,0,0,1-1.16,1.32.56.56,0,0,0-.37.32c-.69-.38-.11-.63.7-1.13a5.42,5.42,0,0,0,.62-.6,2.42,2.42,0,0,0,.16-2.45c-.16-.45-.32-.87-.46-1.34A16.86,16.86,0,0,0,43.64,65a2.2,2.2,0,0,1-.31-.79,3.71,3.71,0,0,1,.06-1.24,8.07,8.07,0,0,1,1-1.46h0c.59,1.13,2.53,1.21,3,1.37A2.12,2.12,0,0,1,48.9,65a6.5,6.5,0,0,1-.39,1.45,9.43,9.43,0,0,0-.74,3C47.81,70.06,48.49,71.62,48.44,72.12Zm.32,1c-.14,0-.16-.06-.17-.16.81-1.18-.22-3.22-.2-3.47,0-.54.37-2.71.49-3.25a4.91,4.91,0,0,0,.35-2,2.37,2.37,0,0,0-1.37-1.58c-.32-.16-2.5-.35-3.18-1.55,0,0,.2-.17-.91-1.34L42.4,58.27A7.72,7.72,0,0,0,40.29,54h0a7.52,7.52,0,0,0-.69-1.21,1.16,1.16,0,0,0,.8-.24,7.9,7.9,0,0,0,1.22.28c1.05.15,2.1.3,3.17.42s2.23.25,3.35.34,2.22.08,3.33.1,2.09,0,3.13,0a9.8,9.8,0,0,0,2.55-.35c1.75-.61,2.8-3.11,3.09-2.93s.05.76-.14.88A23.94,23.94,0,0,0,57.63,55a1.11,1.11,0,0,0-1,1.15c0,1.39,2.5,2.24,3,2a6.72,6.72,0,0,0,2.13-1.53,8.76,8.76,0,0,0-.68,1.48c-.25.78-2.34,5.11-3,6.83a3.45,3.45,0,0,0-2.44-2.11c-.39-.13-1.05-.32-1.25-.74,0,0,0-4.3-.18-5.72a4.17,4.17,0,0,0-.6-1.76,8.15,8.15,0,0,1,.32,3.14,29.46,29.46,0,0,0,.18,3.49,5.74,5.74,0,0,0-1.7-.81c-.59-.19-.61-1.12-.61-1.62s.09-1,.13-1.57a8.32,8.32,0,0,0-.25-2.63s.06,1.9,0,2.78c0,.53-.13,1-.13,1.57s0,1.39.62,1.63a8.11,8.11,0,0,1,1.95,1,4,4,0,0,1,0,.58c-.05.58,1.79,1.1,2.14,1.26A3.7,3.7,0,0,1,58,65.28s-.89,2.3-.11,3.07A28.36,28.36,0,0,1,48.76,73.13ZM67.71,55.94c-.44.25-1,.49-1,0,0-.23.69-2.31.91-3.16.47-1.88,1.17-5.74,1.26-5.72a2.42,2.42,0,0,0,.8.17A45.5,45.5,0,0,1,67.71,55.94Zm2.23-5.67c-.48,1.9-.88,2.38-.83,2.16a37.44,37.44,0,0,0,1.09-4.89l.33-.11A27.79,27.79,0,0,1,69.93,50.27Zm2.35,5.46c-.55-.63.35-2.29.37-2.32a1.75,1.75,0,0,0,.38-.11l0,0h0A4.13,4.13,0,0,0,72.29,55.72Zm2.47-6.25A13.49,13.49,0,0,1,74,50.91a.3.3,0,0,1-.06-.24,5.42,5.42,0,0,1,.58-2.11s-.61.22-1.42,4.54l-.42.12c.08-.21.15-.41.22-.62a10.62,10.62,0,0,0,.51-2.36c.16-1.87,1.37-2.39,1.45-2.34A3.35,3.35,0,0,1,74.76,49.47Z"/></svg>