<svg id="Layer_1" data-name="Layer 1" xmlns="http://www.w3.org/2000/svg" viewBox="0 0 1291.03 171.25"><title>10</title><path d="M65.55,62.41c1-3.36,22.22-14.36,22-33.28C86.93,0,58.52,0,58.52,0S30.1,0,29.5,29.13C29.26,48,50.5,59,51.48,62.41,52.54,65,.15,95.51,0,129.38c-.16,34.25,34.48,35.54,34.48,35.54,14.82-1.33,17.91-6,24-9,6.12,3.06,9.21,7.72,24,9,0,0,34.64-1.29,34.48-35.54C116.88,95.51,64.49,65,65.55,62.41Zm-27-33.53c0-19.47,20-19.47,20-19.47s20,0,20,19.47c-2.94,14.81-14.63,20.36-20,25.92C53.13,49.24,41.44,43.69,38.5,28.88Zm2,92.58c2.48-8.39,8-7.12,8-7.12,4.72.2,9.23,5,10,5s5.31-4.78,10-5c0,0,5.48-1.27,8,7.12,0,8.51-18,20.93-18,20.93S40.52,130,40.52,121.46Zm41.92,33.45c-10.24-1.2-15.11-6-15.11-6,.81-2.71,17.17-11.26,19.15-27.5,0-16.84-17.5-17-17.5-17a17.87,17.87,0,0,0-10.46,3,17.92,17.92,0,0,0-10.47-3s-17.5.17-17.5,17c2,16.24,18.35,24.79,19.15,27.5,0,0-4.87,4.8-15.11,6,0,0-20.42,2.47-25.34-23.53-.12-26,47.56-58.19,49.27-62,1.7,3.81,49.39,36,49.26,62C102.86,157.38,82.44,154.91,82.44,154.91Z"/><path d="M255.94,16.06v86a44.88,44.88,0,1,1-89.75,0v-86h7v86a38.42,38.42,0,0,0,38,38,38,38,0,0,0,37.75-38v-86Z"/><path d="M356.94,110.06a36.92,36.92,0,0,1-37,37h-50.5v-131h35a32.09,32.09,0,0,1,19.5,57.5A36.83,36.83,0,0,1,356.94,110.06Zm-80.5-36.75h27.75a25.13,25.13,0,0,0,0-50.25H276.44Zm73.5,36.75a30.6,30.6,0,0,0-8.75-21,29.67,29.67,0,0,0-21.25-8.75h-43.5v59.75h43.5a29.88,29.88,0,0,0,30-30Z"/><path d="M469.44,147.06l-5.5-14.5a65.22,65.22,0,0,1-82,0l-5.5,14.5h-7.5L419.19,16.31v-.25h7.5v.25l50.25,130.75Zm-8.25-21.25L422.94,26.06l-38.25,99.75a57,57,0,0,0,38.25,14.25,59.54,59.54,0,0,0,22.75-4.5A62.36,62.36,0,0,0,461.19,125.81Z"/><path d="M555.2,45.25a27.36,27.36,0,0,1,13,3.3,32.79,32.79,0,0,1,11,9.68,51.57,51.57,0,0,1,7.58,15.6,71.46,71.46,0,0,1,2.85,21.07,73,73,0,0,1-2.84,21.3,51.45,51.45,0,0,1-7.55,15.68,33.5,33.5,0,0,1-10.92,9.75A26.72,26.72,0,0,1,555.3,145q-10,0-16-5.55v31.8h-7.8V73.6q0-15.45,6.38-21.9T555.2,45.25Zm-15.9,87a13.06,13.06,0,0,0,6.5,6.24,24.32,24.32,0,0,0,9.49,1.73,21.54,21.54,0,0,0,18.91-10.59,45.32,45.32,0,0,0,5.53-14,90.19,90.19,0,0,0,2-20.44,89.17,89.17,0,0,0-2-20.36,45.36,45.36,0,0,0-5.53-14,23.08,23.08,0,0,0-8.37-8.11A21.79,21.79,0,0,0,555.29,50a14.43,14.43,0,0,0-8.37,2.18,14.14,14.14,0,0,0-4.78,5.63,26.48,26.48,0,0,0-2.24,7.89,68,68,0,0,0-.6,9.09Z"/><path d="M634.25,45.25A30.52,30.52,0,0,1,647.07,48a28.93,28.93,0,0,1,10.72,8.7,45.51,45.51,0,0,1,7.42,15.38Q668,81.55,668,95t-2.78,23a45.43,45.43,0,0,1-7.42,15.45,28.89,28.89,0,0,1-10.72,8.7,31,31,0,0,1-25.65,0,28.87,28.87,0,0,1-10.72-8.7,45.34,45.34,0,0,1-7.42-15.45q-2.78-9.52-2.78-23t2.78-22.95a45.42,45.42,0,0,1,7.42-15.38A28.92,28.92,0,0,1,621.42,48,30.52,30.52,0,0,1,634.25,45.25Zm0,94.95a20.86,20.86,0,0,0,9.83-2.48,23,23,0,0,0,8.33-7.89,44.22,44.22,0,0,0,5.7-14,88.3,88.3,0,0,0,2.1-20.74,88.3,88.3,0,0,0-2.1-20.74,44.2,44.2,0,0,0-5.7-14,23,23,0,0,0-8.33-7.89A20.89,20.89,0,0,0,634.25,50a20.45,20.45,0,0,0-9.75,2.48,23.23,23.23,0,0,0-8.25,7.89,45.3,45.3,0,0,0-5.78,14,85.34,85.34,0,0,0-2.17,20.74,85.34,85.34,0,0,0,2.17,20.74,45.33,45.33,0,0,0,5.78,14,23.2,23.2,0,0,0,8.25,7.89A20.41,20.41,0,0,0,634.25,140.2Z"/><path d="M680,82.3q0-13.2,5-22.35a28,28,0,0,1,15-13.05,24,24,0,0,1,4.72-1.2,13.37,13.37,0,0,1,5.1.07A6.62,6.62,0,0,1,713.52,48q1.42,1.73,1,5.18-11.85-2.25-17.85,1Q692,56.8,690,63.32t-2,18.22V95.2q0,7.5-.08,15.67t-.08,16.5V143.5H680Z"/><path d="M773.6,128.35A29.78,29.78,0,0,0,774,134a7.89,7.89,0,0,0,1.5,3.53,6.06,6.06,0,0,0,2.77,1.88,15.91,15.91,0,0,0,4.28.75V145q-8.7,0-12.75-4.12t-4-13.43V19h7.8Z"/><path d="M849.2,116.65a45.06,45.06,0,0,1-1.65,13,22.69,22.69,0,0,1-4.72,8.78,18.33,18.33,0,0,1-7.43,4.95,29,29,0,0,1-9.9,1.58,41.79,41.79,0,0,1-14.78-2.4A30.81,30.81,0,0,1,800,136a27.59,27.59,0,0,1-6.6-10,34.3,34.3,0,0,1,.75-26.25,36.1,36.1,0,0,1,9.15-12.15,54.79,54.79,0,0,1,15.53-9.37A86.9,86.9,0,0,1,841.1,72.7a44,44,0,0,0-1.72-8.62,21.57,21.57,0,0,0-3.83-7.28,17.71,17.71,0,0,0-6.45-4.95,22.85,22.85,0,0,0-9.6-1.8,26.87,26.87,0,0,0-13,3.75,42.86,42.86,0,0,0-11.4,9,7.07,7.07,0,0,1-.6-7.65,12,12,0,0,1,4.42-5,27.24,27.24,0,0,1,6.45-3,35.48,35.48,0,0,1,7.27-1.5q3.75-.37,6.9-.37a32,32,0,0,1,13.8,2.7,25.17,25.17,0,0,1,9.22,7.2,28.6,28.6,0,0,1,5.1,10.5,49.45,49.45,0,0,1,1.58,12.6ZM825.5,140.2a18.5,18.5,0,0,0,6.67-1.12,10.79,10.79,0,0,0,5-4,21.75,21.75,0,0,0,3.15-7.65,53.71,53.71,0,0,0,1.13-12V77.8a73.55,73.55,0,0,0-19.65,4.73,44.26,44.26,0,0,0-13.2,8.1,28.15,28.15,0,0,0-7.35,10.58,34.38,34.38,0,0,0-2.25,12.45q0,13.2,6,19.88T825.5,140.2Z"/><path d="M929,145a12.39,12.39,0,0,1-9.08-3.83,32.84,32.84,0,0,1-6.67-10.57,88,88,0,0,1-4.8-16q-2-9.22-3.6-20.1t-3.3-23q-1.65-12.15-3.6-24.75h7.95q2.4,17.85,4.43,34.73t4.42,29.92a108.42,108.42,0,0,0,5.63,20.92q3.22,7.88,8.33,7.88,3.9,0,7-4.2a45,45,0,0,0,5.77-11.25,120.09,120.09,0,0,0,4.65-16.43q2-9.37,3.67-19.73t2.85-21.15q1.2-10.8,2.25-20.7h8.4q-2.55,21.9-5.55,40a234.56,234.56,0,0,1-7,31q-4.05,13-9.37,20.1T929,145Z"/><path d="M984.34,29.65a5.76,5.76,0,0,1-1.65,4.12,5.56,5.56,0,0,1-4.2,1.73,5.8,5.8,0,0,1-4.28-1.73,5.62,5.62,0,0,1-1.72-4.12,5.89,5.89,0,0,1,6-6,5.57,5.57,0,0,1,4.2,1.73A6,6,0,0,1,984.34,29.65ZM974.59,143.5V46.75h7.8V143.5Z"/><path d="M1056.49,128.35a6.46,6.46,0,0,1-.83,3.15,15.67,15.67,0,0,1-2,2.85,30.23,30.23,0,0,1-10,8.1,25.23,25.23,0,0,1-11,2.55,28.93,28.93,0,0,1-13-3.08,31.23,31.23,0,0,1-11-9.22,48.24,48.24,0,0,1-7.58-15.6,77.21,77.21,0,0,1-2.85-22.2,71.4,71.4,0,0,1,2.85-21.07,51.5,51.5,0,0,1,7.58-15.6,32.77,32.77,0,0,1,11-9.68,27.36,27.36,0,0,1,13-3.3q10,0,16,5.55V19h7.8Zm-50.4-33.23a89.82,89.82,0,0,0,2,20.44,45.17,45.17,0,0,0,5.55,14,21.63,21.63,0,0,0,19,10.59q11.55,0,16-8V58.16a14.29,14.29,0,0,0-6.6-6.31,23.05,23.05,0,0,0-9.45-1.8,21.92,21.92,0,0,0-10.58,2.63,23.12,23.12,0,0,0-8.4,8.11,45.21,45.21,0,0,0-5.55,14A88.8,88.8,0,0,0,1006.09,95.12Z"/><path d="M1127.14,116.65a45.06,45.06,0,0,1-1.65,13,22.69,22.69,0,0,1-4.72,8.78,18.33,18.33,0,0,1-7.43,4.95,29,29,0,0,1-9.9,1.58,41.79,41.79,0,0,1-14.78-2.4,30.81,30.81,0,0,1-10.72-6.6,27.59,27.59,0,0,1-6.6-10,34.3,34.3,0,0,1,.75-26.25,36.1,36.1,0,0,1,9.15-12.15,54.79,54.79,0,0,1,15.53-9.37A86.9,86.9,0,0,1,1119,72.7a44,44,0,0,0-1.72-8.62,21.57,21.57,0,0,0-3.83-7.28,17.71,17.71,0,0,0-6.45-4.95,22.85,22.85,0,0,0-9.6-1.8,26.87,26.87,0,0,0-13,3.75,42.86,42.86,0,0,0-11.4,9,7.07,7.07,0,0,1-.6-7.65,12,12,0,0,1,4.42-5,27.24,27.24,0,0,1,6.45-3,35.48,35.48,0,0,1,7.27-1.5q3.75-.37,6.9-.37a32,32,0,0,1,13.8,2.7,25.17,25.17,0,0,1,9.22,7.2,28.6,28.6,0,0,1,5.1,10.5,49.45,49.45,0,0,1,1.58,12.6Zm-23.7,23.55a18.5,18.5,0,0,0,6.67-1.12,10.79,10.79,0,0,0,5-4,21.75,21.75,0,0,0,3.15-7.65,53.71,53.71,0,0,0,1.13-12V77.8a73.55,73.55,0,0,0-19.65,4.73,44.26,44.26,0,0,0-13.2,8.1,28.15,28.15,0,0,0-7.35,10.58,34.38,34.38,0,0,0-2.25,12.45q0,13.2,6,19.88T1103.44,140.2Z"/><path d="M1239.55,62.41c1-3.36,22.22-14.36,22-33.28-.6-29.12-29-29.13-29-29.13s-28.42,0-29,29.13c-.24,18.92,21,29.92,22,33.28,1.06,2.59-51.33,33.1-51.48,67-.16,34.25,34.48,35.54,34.48,35.54,14.82-1.33,17.91-6,24-9,6.12,3.06,9.21,7.72,24,9,0,0,34.64-1.29,34.48-35.54C1290.88,95.51,1238.49,65,1239.55,62.41Zm-27-33.53c0-19.47,20-19.47,20-19.47s20,0,20,19.47c-2.94,14.81-14.63,20.36-20,25.92C1227.13,49.24,1215.44,43.69,1212.5,28.88Zm2,92.58c2.48-8.39,8-7.12,8-7.12,4.72.2,9.23,5,10,5s5.31-4.78,10-5c0,0,5.48-1.27,8,7.12,0,8.51-18,20.93-18,20.93S1214.52,130,1214.52,121.46Zm41.92,33.45c-10.24-1.2-15.11-6-15.11-6,.81-2.71,17.17-11.26,19.15-27.5,0-16.84-17.5-17-17.5-17a17.87,17.87,0,0,0-10.46,3,17.92,17.92,0,0,0-10.47-3s-17.5.17-17.5,17c2,16.24,18.35,24.79,19.15,27.5,0,0-4.87,4.8-15.11,6,0,0-20.42,2.47-25.34-23.53-.12-26,47.56-58.19,49.27-62,1.7,3.81,49.39,36,49.26,62C1276.86,157.38,1256.44,154.91,1256.44,154.91Z"/></svg>